<?xml version="1.0" encoding="utf-8"?>
<!-- Generator: Adobe Illustrator 25.2.3, SVG Export Plug-In . SVG Version: 6.00 Build 0)  -->
<svg version="1.1" id="Layer_1" xmlns="http://www.w3.org/2000/svg" xmlns:xlink="http://www.w3.org/1999/xlink" x="0px" y="0px"
	 viewBox="0 0 320 300" style="enable-background:new 0 0 320 300;" xml:space="preserve">
<style type="text/css">
	.st0{fill:#FFFFFF;}
</style>
<g>
	<rect x="127.3" y="246.4" class="st0" width="20.2" height="9"/>
	<path class="st0" d="M248.4,79.9h-45.9V44.1c0-8-6.5-14.6-14.6-14.6H87c-8,0-14.6,6.5-14.6,14.6v211.8c0,8,6.5,14.6,14.6,14.6
		h100.9c8,0,14.6-6.5,14.6-14.6v-61.1h45.9c8,0,14.6-6.5,14.6-14.6V94.5C262.9,86.5,256.4,79.9,248.4,79.9z M187.8,261.5H87
		c-3.1,0-5.6-2.5-5.6-5.6v-15.7h112v15.7C193.4,259,190.9,261.5,187.8,261.5z M193.4,231.2h-112V44.1c0-3.1,2.5-5.6,5.6-5.6h100.9
		c3.1,0,5.6,2.5,5.6,5.6v35.8h-56c-8,0-14.6,6.5-14.6,14.6v85.7c0,8,6.5,14.6,14.6,14.6h8.2l17,17l17-17h13.8v36.4H193.4z
		 M253.9,180.3c0,3.1-2.5,5.6-5.6,5.6h-72.5l-13.3,13.3l-13.3-13.3h-12c-3.1,0-5.6-2.5-5.6-5.6V94.5c0-3.1,2.5-5.6,5.6-5.6h111
		c3.1,0,5.6,2.5,5.6,5.6v85.8H253.9z"/>
	<polygon class="st0" points="166.1,133 185.3,133 185.3,171.4 198.4,171.4 198.4,133 217.6,133 217.6,122.1 166.1,122.1 	"/>
	<rect x="166.1" y="106.6" class="st0" width="51.4" height="11"/>
</g>
</svg>
