<?xml version="1.0" encoding="utf-8"?>
<!-- Generator: Adobe Illustrator 25.2.3, SVG Export Plug-In . SVG Version: 6.00 Build 0)  -->
<svg version="1.1" id="Layer_1" xmlns="http://www.w3.org/2000/svg" xmlns:xlink="http://www.w3.org/1999/xlink" x="0px" y="0px"
	 viewBox="0 0 320 300" style="enable-background:new 0 0 320 300;" xml:space="preserve">
<style type="text/css">
	.st0{fill:#FFFFFF;}
</style>
<g>
	<path class="st0" d="M252.1,59.4c-2.7-6.1-8.7-10-15.3-10l0,0h-34.6c-1.9-4.7-3.9-9.8-6.2-15.2c-0.4-1-0.7-1.8-0.8-2
		c-0.4-1.2-1.5-2.1-2.8-2.3c-0.1,0-3.2-0.4-8.6-0.9c-0.2-0.3-0.4-0.6-0.6-0.8c-9.5-9.4-22.2-14.7-35.7-14.7
		c-13.6,0-26.3,5.3-35.9,15c-0.2,0.2-0.3,0.3-0.4,0.5c-5.9,0.5-9.5,1-9.6,1c-1.3,0.2-2.4,1.1-2.8,2.3c-0.1,0.2-0.4,1-0.8,2
		c-1.8,4.3-3.4,8.3-5,12.2H59.7c-1.9,0-3.5,1.6-3.5,3.5c0,0.8,0.1,19.7,12.8,68.6c-6.1,27.8-9.1,59-10.5,81.8
		c-1.9,28.7-1.8,50.6-1.8,50.8c0,1.4,0.9,2.7,2.2,3.2c0.1,0.1,1.9,0.7,5.3,1.7v17.8c0,1.6,1,2.9,2.6,3.4c12.4,3.5,39.3,9.2,80.3,9.2
		l0,0l0,0l0,0l0,0c40.9,0,67.9-5.8,80.3-9.2c1.5-0.4,2.6-1.8,2.6-3.4V256c3.4-1,5.1-1.7,5.3-1.7c1.3-0.5,2.2-1.8,2.2-3.2
		c0-0.2,0.1-22-1.8-50.8c-0.1-1-0.1-2-0.2-3c14.5-2.7,25-10.5,31.2-23.3c4.9-10.1,7.2-23.2,7.2-41.2
		C273.8,111.4,260.2,77.7,252.1,59.4z M147.5,20.5c9,0,17.5,2.7,24.7,7.7c-7-0.4-15.4-0.8-24.8-0.8c-8.8,0-17.3,0.3-24.5,0.8
		C130.1,23.2,138.6,20.5,147.5,20.5z M90.3,53.4c-10,25.2-15.1,41.1-17.7,50.6c-6.8-28.2-8.6-44-9.2-50.5L90.3,53.4L90.3,53.4z
		 M222.9,271.2c-13,3.4-38.4,8.3-75.8,8.3c-37.5,0-62.8-4.9-75.8-8.3V258c2.9,0.7,6.3,1.5,10.2,2.3c13.4,2.6,35.7,5.8,65.6,5.8
		s52.2-3.2,65.6-5.8c3.9-0.8,7.3-1.6,10.2-2.3L222.9,271.2L222.9,271.2z M211,253.4c-13.1,2.6-34.8,5.6-64,5.6s-50.9-3.1-64-5.6
		c-9.7-1.9-16.2-3.8-19.3-4.8c0-6.4,0.3-24.9,1.7-47.8c1.4-22.4,4.4-53,10.3-80.2c0.4-0.6,0.5-1.3,0.5-2.1c0.9-4,1.9-7.9,2.9-11.7
		c3-11.2,9.9-32.5,25.4-69.8c0-0.1,0.1-0.2,0.1-0.3c5.8-0.7,23.7-2.5,42.9-2.4c20.6,0.1,36.6,1.7,42,2.3c0,0.1,0.1,0.2,0.1,0.3
		c15.5,37.4,22.4,58.6,25.4,69.9c8.2,30.1,11.9,67.7,13.6,93.9c1.5,22.9,1.7,41.4,1.7,47.9C227.2,249.6,220.7,251.5,211,253.4z
		 M221.8,104.9L221.8,104.9c-1.5-5.7-4.1-13.9-8.1-25.4h20.6l0,0c2.2,0,4.1,1.3,5,3.2c4.2,9.6,14.1,33.3,14.1,47.1
		c0,23.3-6.2,34.8-20.6,37.6C230.5,146.9,227,124.4,221.8,104.9z M260.3,170.9c-5.1,10.6-13.5,17-25.4,19.4
		c-0.4-5-0.9-10.4-1.4-15.9c10.2-1.9,17.5-7.4,21.9-16.4c3.4-7,4.9-16,4.9-28.3c0-14.6-9.2-37.5-14.7-49.9c-2-4.5-6.5-7.4-11.4-7.4
		l0,0h-23.1c-1.8-4.8-3.8-10.2-6.1-16.1h31.8l0,0c3.9,0,7.4,2.3,9,5.8c6.3,14.3,21,49.7,21,70.5
		C266.8,149.7,264.7,161.8,260.3,170.9z"/>
	<path class="st0" d="M154.7,215.8h-15.4c-6.2,0-11.3,5.1-11.3,11.3s5.1,11.3,11.3,11.3h15.4c6.2,0,11.3-5.1,11.3-11.3
		C166,220.9,161,215.8,154.7,215.8z M154.7,231.4h-15.4c-2.4,0-4.3-1.9-4.3-4.3s1.9-4.3,4.3-4.3h15.4c2.4,0,4.3,1.9,4.3,4.3
		S157.1,231.4,154.7,231.4z"/>
	<path class="st0" d="M147,73.4c-11.3,0-20.5,9.2-20.5,20.5v80.3c0,11.3,9.2,20.5,20.5,20.5s20.5-9.2,20.5-20.5V93.9
		C167.5,82.6,158.3,73.4,147,73.4z M147,187.6c-7.4,0-13.5-6-13.5-13.5V93.9c0-7.4,6-13.5,13.5-13.5c7.4,0,13.5,6,13.5,13.5v5h-13.1
		c-1.9,0-3.5,1.6-3.5,3.5s1.6,3.5,3.5,3.5h13.1v8.8h-13.1c-1.9,0-3.5,1.6-3.5,3.5s1.6,3.5,3.5,3.5h13.1v8.8h-13.1
		c-1.9,0-3.5,1.6-3.5,3.5c0,1.9,1.6,3.5,3.5,3.5h13.1v8.8h-13.1c-1.9,0-3.5,1.6-3.5,3.5s1.6,3.5,3.5,3.5h13.1v8.8h-13.1
		c-1.9,0-3.5,1.6-3.5,3.5s1.6,3.5,3.5,3.5h13.1v5C160.5,181.6,154.5,187.6,147,187.6z"/>
</g>
</svg>
