<?xml version="1.0" encoding="utf-8"?>
<!-- Generator: Adobe Illustrator 25.2.3, SVG Export Plug-In . SVG Version: 6.00 Build 0)  -->
<svg version="1.1" id="Layer_1" xmlns="http://www.w3.org/2000/svg" xmlns:xlink="http://www.w3.org/1999/xlink" x="0px" y="0px"
	 viewBox="0 0 320 300" style="enable-background:new 0 0 320 300;" xml:space="preserve">
<style type="text/css">
	.st0{fill:#FFFFFF;}
</style>
<g>
	<path class="st0" d="M219.3,22.9c-3.9-3.9-9-6-14.5-6h-89.6c-5.5,0-10.6,2.1-14.5,6s-6,9-6,14.5v225.3c0,5.5,2.1,10.6,6,14.5
		c3.9,3.9,9,6,14.5,6h89.6c5.5,0,10.6-2.1,14.5-6s6-9,6-14.5V37.4C225.3,31.9,223.1,26.7,219.3,22.9z M116.5,24.7h87
		c7.5,0,13.7,6.3,13.7,14v222.6c0,7.7-6.1,14-13.7,14h-87c-7.5,0-13.7-6.3-13.7-14V38.7C102.8,31,109,24.7,116.5,24.7z M116.5,276
		L116.5,276c-1.5,0-3-0.2-4.4-0.7C113.5,275.7,115,276,116.5,276z M111.4,275c-0.4-0.2-0.8-0.4-1.2-0.6
		C110.5,274.6,110.9,274.8,111.4,275z M109.2,273.9c-0.1-0.1-0.2-0.1-0.4-0.2C109,273.8,109.1,273.9,109.2,273.9z M108.1,273.2
		c-0.2-0.2-0.5-0.4-0.7-0.5C107.6,272.8,107.9,273,108.1,273.2z M107.3,272.6c-0.2-0.1-0.3-0.3-0.5-0.4
		C107,272.3,107.2,272.4,107.3,272.6z M102.1,38.7c0-2.4,0.6-4.7,1.6-6.7C102.7,34,102.1,36.3,102.1,38.7v222.6c0,2.5,0.6,4.9,1.7,7
		c-1.1-2.1-1.7-4.4-1.7-7V38.7z M106.1,28.6L106.1,28.6L106.1,28.6z M105.7,29.1C105.6,29.1,105.6,29.1,105.7,29.1
		C105.6,29.1,105.6,29.1,105.7,29.1z M104.3,30.9c-0.1,0.1-0.2,0.3-0.2,0.4C104.2,31.2,104.2,31,104.3,30.9z M104,31.5
		c-0.1,0.2-0.2,0.4-0.3,0.5C103.8,31.8,103.9,31.6,104,31.5z M106.3,271.7c-0.7-0.7-1.3-1.5-1.9-2.3
		C105,270.2,105.6,271,106.3,271.7z M104.3,269.1c-0.2-0.2-0.3-0.5-0.4-0.7C104,268.6,104.2,268.8,104.3,269.1z M95.4,37.4
		c0-3.5,0.9-6.9,2.6-9.8C96.4,30.5,95.4,33.8,95.4,37.4v225.3c0,4.4,1.4,8.4,3.8,11.7c-2.4-3.3-3.8-7.3-3.8-11.7V37.4z M98.9,26.1
		c-0.1,0.1-0.2,0.3-0.3,0.4C98.7,26.4,98.8,26.3,98.9,26.1z M99.6,274.8c0.3,0.4,0.6,0.8,1,1.2C100.2,275.6,99.9,275.2,99.6,274.8z
		 M101.2,276.6L101.2,276.6L101.2,276.6z M218.8,276.6L218.8,276.6L218.8,276.6z M224.6,262.6c0,4.9-1.8,9.5-4.8,12.9
		c-0.2,0.2-0.3,0.4-0.5,0.5c0.2-0.2,0.3-0.4,0.5-0.5C222.8,272.1,224.6,267.6,224.6,262.6V37.3c0-3.5-0.9-6.9-2.6-9.8
		c1.6,2.9,2.6,6.2,2.6,9.8V262.6z M220.6,25.4c0.1,0.1,0.1,0.2,0.2,0.3C220.7,25.6,220.6,25.5,220.6,25.4z M221.1,26.1
		c0.1,0.1,0.2,0.3,0.3,0.4C221.3,26.4,221.2,26.3,221.1,26.1z M221.5,26.8c0.1,0.2,0.3,0.4,0.4,0.6C221.8,27.2,221.7,27,221.5,26.8z
		"/>
	<path class="st0" d="M146.6,43.9h26.8c3.2,0,5.8-2.6,5.8-5.8s-2.6-5.8-5.8-5.8h-26.8c-3.2,0-5.8,2.6-5.8,5.8
		C140.8,41.3,143.4,43.9,146.6,43.9z"/>
</g>
</svg>
