<?xml version="1.0" encoding="utf-8"?>
<!-- Generator: Adobe Illustrator 25.2.3, SVG Export Plug-In . SVG Version: 6.00 Build 0)  -->
<svg version="1.1" id="Layer_1" xmlns="http://www.w3.org/2000/svg" xmlns:xlink="http://www.w3.org/1999/xlink" x="0px" y="0px"
	 viewBox="0 0 320 300" style="enable-background:new 0 0 320 300;" xml:space="preserve">
<style type="text/css">
	.st0{fill:#FFFFFF;}
</style>
<g>
	<path class="st0" d="M262.3,90.4c9.1,0,16.5-7.4,16.5-16.5V27.1c0-9.1-7.4-16.5-16.5-16.5H57.7c-9.1,0-16.5,7.4-16.5,16.5v46.8
		c0,9.1,7.4,16.5,16.5,16.5H64v154.4h-7.2c-8.6,0-15.6,7-15.6,15.6v13.4c0,8.6,7,15.6,15.6,15.6h206.3c8.6,0,15.6-7,15.6-15.6v-13.4
		c0-8.6-7-15.6-15.6-15.6H256V90.4H262.3z M57.7,82.6c-4.8,0-8.7-3.9-8.7-8.7V27.1c0-4.8,3.9-8.7,8.7-8.7h204.7
		c4.8,0,8.7,3.9,8.7,8.7v46.8c0,4.8-3.9,8.7-8.7,8.7H256h-71.8h-48.3H64H57.7z M170.7,116.8h-21.3c-3.2,0-5.7-2.6-5.7-5.7V90.4h32.8
		v20.8C176.4,114.3,173.8,116.8,170.7,116.8z M156.6,124.6h6.8v4.8h-6.8V124.6z M263.2,252.6c4.3,0,7.9,3.5,7.9,7.9v13.4
		c0,4.3-3.5,7.9-7.9,7.9H56.8c-4.3,0-7.9-3.5-7.9-7.9v-13.4c0-4.3,3.5-7.9,7.9-7.9H64h192H263.2z M198,194h10.4
		c4.7,0,8.6,3.9,8.6,8.6c0,3-1.6,5.9-4.2,7.4l-17.6,10.3L198,194z M191,186.2L191,186.2l-5.4,48.7l0,0l-1.1,9.9h-49.2l-7.5-67.7H192
		L191,186.2z M248.2,244.8h-55.8L194,230l22.6-13.3c5-2.9,8.1-8.3,8.1-14.1c0-9-7.3-16.4-16.4-16.4h-9.5l1.9-16.9h-81.5l8.3,75.5
		H71.8V90.4h64v20.8c0,7.3,5.8,13.2,13,13.5v5.8c0,3.8,3.1,6.8,6.8,6.8h8.7c3.8,0,6.8-3.1,6.8-6.8v-5.8c7.2-0.3,13-6.2,13-13.5V90.4
		h64L248.2,244.8L248.2,244.8z"/>
	<path class="st0" d="M216.3,54.3v-7.6c0-9.1-7.4-16.5-16.5-16.5h-79.6c-9.1,0-16.5,7.4-16.5,16.5v7.6c0,9.1,7.4,16.5,16.5,16.5
		h79.6C208.9,70.8,216.3,63.4,216.3,54.3z M111.5,54.3v-7.6c0-4.8,3.9-8.7,8.7-8.7h79.6c4.8,0,8.7,3.9,8.7,8.7v7.6
		c0,4.8-3.9,8.7-8.7,8.7h-79.6C115.4,63,111.5,59.1,111.5,54.3z"/>
	<rect x="124" y="46.1" class="st0" width="39" height="7.8"/>
	<rect x="177.7" y="46.1" class="st0" width="15.5" height="7.8"/>
</g>
</svg>
