<?xml version="1.0" encoding="utf-8"?>
<!-- Generator: Adobe Illustrator 25.2.3, SVG Export Plug-In . SVG Version: 6.00 Build 0)  -->
<svg version="1.1" id="Layer_1" xmlns="http://www.w3.org/2000/svg" xmlns:xlink="http://www.w3.org/1999/xlink" x="0px" y="0px"
	 viewBox="0 0 320 300" style="enable-background:new 0 0 320 300;" xml:space="preserve">
<style type="text/css">
	.st0{fill:#FFFFFF;}
</style>
<g>
	<path class="st0" d="M261.1,136h-11.4c9.8-9.3,15.4-22.2,15.4-35.9c0-27.3-22.2-49.5-49.5-49.5H104.4c-27.3,0-49.5,22.2-49.5,49.5
		c0,13.6,5.6,26.5,15.4,35.9H58.9c-2.2,0-4,1.8-4,4v59.9c0,27.3,22.2,49.4,49.4,49.4h111.3c27.3,0,49.4-22.2,49.4-49.4V140
		C265.1,137.8,263.3,136,261.1,136z M104.4,58.7h111.2c22.9,0,41.5,18.6,41.5,41.5c0,14.7-7.9,28.4-20.6,35.9h-3.8l11.2-23.2
		c0.1-0.2,0.2-0.5,0.3-0.8c1.2-3,1.8-6.1,1.9-9.3c0.3-8.5-3.2-16.5-9.8-22.6c-6.4-6-15.1-9.4-24.4-9.7c-8.9-0.3-17.5,2.5-24.2,7.7
		L181,78c-8.6-0.2-15.9,6.6-16.2,15.2l-0.5,13.8c-0.3,8.6,6.6,15.9,15.2,16.2l6.2,0.2c4.7,4.3,10.5,7.2,17,8.6l-1.9,4h-81.6l-1.9-4
		c6.5-1.4,12.4-4.4,17-8.6l6.2-0.2c4.2-0.1,8.1-1.9,10.9-4.9c2.9-3.1,4.4-7,4.3-11.2l-0.4-13.9c-0.3-8.6-7.5-15.4-16.2-15.2
		l-6.7,0.2c-6.7-5.3-15.3-8-24.2-7.7c-9.3,0.3-18,3.7-24.4,9.7c-6.6,6.1-10.1,14.2-9.8,22.6c0.1,3.2,0.7,6.3,1.9,9.3
		c0.1,0.3,0.2,0.5,0.3,0.8L87.3,136h-3.8c-12.7-7.4-20.6-21.1-20.6-35.9C62.9,77.3,81.5,58.7,104.4,58.7z M234.2,114.7L223.9,136
		h-14.2l5.6-11.5c0.5-1,0.5-2,0.2-3c-0.4-1-1.1-1.8-2-2.3c-1-0.5-2-0.5-3-0.2c-1,0.4-1.8,1.1-2.3,2l-1.7,3.6
		c-5.9-0.9-11.2-3.4-15.4-7.2l0,0l1-32.4c5.3-4.4,12.3-6.7,19.7-6.5s14.2,2.9,19.2,7.6c4.9,4.5,7.5,10.4,7.3,16.5
		c-0.1,3.4-1.1,6.7-2.9,9.8l-1.5,2.6L234.2,114.7z M183,115.3l-3.2-0.1c-2.1-0.1-4-0.9-5.4-2.4s-2.2-3.5-2.1-5.5l0.4-13.9
		c0.1-4.1,3.6-7.5,7.7-7.5l3.5,0.1L183,115.3z M109.7,118.9c-1-0.4-2.1-0.3-3,0.2c-1,0.5-1.7,1.3-2,2.3s-0.3,2.1,0.2,3l5.6,11.6
		H96.1l-10.3-21.3l0.5,0.2l-1.5-2.5c-1.8-3.1-2.8-6.4-2.9-9.8c-0.2-6.1,2.4-12,7.3-16.5c5-4.7,11.9-7.4,19.2-7.6
		c7.4-0.2,14.4,2.1,19.7,6.5l1,32.4l0,0c-4.1,3.8-9.4,6.3-15.4,7.2L112,121C111.5,120,110.7,119.3,109.7,118.9z M147.3,93.4
		l0.4,13.9c0.1,2.1-0.7,4-2.1,5.5s-3.3,2.4-5.4,2.4l-3.2,0.1L136.2,86l3.2-0.1h0.2C143.7,85.9,147.2,89.2,147.3,93.4z M257.1,144
		v55.9c0,22.9-18.6,41.5-41.5,41.5H104.4c-22.9,0-41.5-18.6-41.5-41.5V144H257.1z"/>
	<path class="st0" d="M211.4,97h-14.1c-2.2,0-4,1.8-4,4s1.8,4,4,4h14.1c2.2,0,4-1.8,4-4C215.4,98.7,213.6,97,211.4,97z"/>
	<path class="st0" d="M126.7,100.9c0-2.2-1.8-4-4-4h-14.1c-2.2,0-4,1.8-4,4s1.8,4,4,4h14.1C124.9,104.9,126.7,103.1,126.7,100.9z"/>
	<path class="st0" d="M160,199c3.5,0,6.3-2.8,6.3-6.3s-2.8-6.3-6.3-6.3s-6.3,2.8-6.3,6.3S156.5,199,160,199z"/>
</g>
</svg>
