<?xml version="1.0" encoding="utf-8"?>
<!-- Generator: Adobe Illustrator 25.2.3, SVG Export Plug-In . SVG Version: 6.00 Build 0)  -->
<svg version="1.1" id="Layer_1" xmlns="http://www.w3.org/2000/svg" xmlns:xlink="http://www.w3.org/1999/xlink" x="0px" y="0px"
	 viewBox="0 0 320 300" style="enable-background:new 0 0 320 300;" xml:space="preserve">
<style type="text/css">
	.st0{fill:#FFFFFF;}
</style>
<g>
	<path class="st0" d="M144.7,137.7c0-0.4,0.1-0.8,0.3-1.2c-0.3,0.3-0.6,0.6-0.9,1c0,0,0,0,0,0.1c-0.7,0.2-1.4,0.5-1.8,0.7
		c-0.5,0.3-1,0.8-1.3,1.4c-0.3,0.4-0.4,0.9-0.5,1.4l3.5,5.9L144.7,137.7z"/>
	<path class="st0" d="M93.2,142.7c0.3,1,1.3,1.7,2.3,1.6l10.6-1.1l8.8,33.6c0.3,1,1.1,1.6,2.1,1.6c0.1,0,0.2,0,0.4,0l8.5-1.4
		c0.9-0.1,1.8-0.1,2.4-0.8c0.4-0.4,0.6-0.9,0.8-1.4c0.9-0.1,1.8-0.1,2.4-0.8c0.4-0.4,0.7-1,0.8-1.5c-0.6,0.5-1.4,0.9-2.1,1l-8.5,1.4
		c-0.1,0-0.2,0-0.4,0c-1,0-1.8-0.7-2.1-1.6l-8.8-33.6l-10.6,1.1c-1.1,0.1-2-0.6-2.3-1.6l-1.4-5.2c-0.1-0.3-0.1-0.7-0.1-1.1
		c0-0.5,0.1-1.1,0.3-1.5c-0.2,0.1-0.3,0.3-0.5,0.4c-0.3,0.3-0.6,0.7-0.8,1.1h-0.1c-0.8,0.1-1.7,0.4-2.3,1c-0.7,0.6-1,1.6-1,2.5
		c0,0.4,0.1,0.7,0.1,1.1L93.2,142.7z"/>
	<path class="st0" d="M147.5,170.7c-0.8,0.1-1.5,0.1-2.3,0.1c-0.9,0-1.7-0.1-2.6-0.5c-1-0.4-1.7-1.1-2.3-2.1c0,0-3.6-5.9-7.6-12.3
		c-1.5-2.5-3.1-5-4.4-7.2l4.8,18.3c1.8,2.8,3,4.7,3,4.7c0.6,1,1.3,1.7,2.3,2.1c0.8,0.3,1.6,0.6,2.5,0.6c0.8,0,1.5,0,2.3-0.1
		c1.4-0.3,2.5-0.2,3.6-1c0.5-0.4,1-0.8,1.3-1.4c0.7-0.1,1.3-0.3,1.9-0.7c0.7-0.5,1.3-1.1,1.6-2.1c-0.2,0.2-0.4,0.3-0.6,0.5
		C149.9,170.3,148.9,170.5,147.5,170.7z"/>
	<path class="st0" d="M164.8,167.9c-0.7,0.1-1.3,0.2-2,0.2c-0.9,0-1.7-0.1-2.6-0.5c-0.8-0.4-1.6-1-2.1-1.8l0,0l-4.8-8.1l-0.5,8
		c0,0.5-0.1,1-0.2,1.4l1.3,2.2l0,0c0.5,0.8,1.3,1.5,2.1,1.8c0.9,0.4,1.7,0.5,2.6,0.5c0.7,0,1.1,0,1.8-0.1c1.4-0.2,2.4-0.2,3.5-0.9
		c0.5-0.3,1.1-0.8,1.4-1.4c0-0.1,0.1-0.1,0.1-0.2c0.6-0.1,1.1-0.3,1.6-0.6s1.1-0.8,1.4-1.4c0.1-0.2,0.3-0.5,0.3-0.8
		c-0.2,0.2-0.4,0.4-0.7,0.5C167.2,167.4,166.2,167.6,164.8,167.9z"/>
	<path class="st0" d="M165.7,131.8c1.2-0.1,3.1-0.3,3.1-0.3c0.2,0,0.3,0,0.5,0c0.8,0,1.6,0.3,2.3,0.7l0.1-0.1
		c0.3-0.4,0.7-0.6,1.2-0.8c-2.1-1.1-3.7-3.1-4.4-5.5c-0.2-0.6-0.3-1.3-0.3-1.9c0-1.2,0.3-2.2,0.8-3.2c-0.3,0.3-0.5,0.5-0.7,0.8
		c-2.6,0.7-4.3,3-4.3,5.8c0,0.6,0.1,1.4,0.4,2.1C164.7,130.3,165.1,131.1,165.7,131.8z"/>
	<path class="st0" d="M206.8,128.8C206.7,128.8,206.7,128.8,206.8,128.8c-0.8,0.1-1.4,0.5-1.7,1.1l-0.5,0.9c-0.6,0.1-1,0.1-1,0.1
		c-0.7,0.1-1.3,0.5-1.7,1.1l-0.1,0.2l2.1,1.8L206.8,128.8z"/>
	<path class="st0" d="M162.8,133.8C162.8,133.8,162.8,133.7,162.8,133.8c-0.6,0.3-1.1,0.9-1.1,1.6c0,0,0,0,0,0.1
		c-0.7,0.1-1.2,0.1-1.2,0.1c-1,0.1-1.8,0.9-1.9,1.9c0,0-0.1,0.7-0.2,1.7c1.6,2.5,3.4,5.4,3.4,5.4L162.8,133.8z"/>
	<path class="st0" d="M196.2,146c-2.3-2.1-7.3-6.4-10.1-8.9l2.4,9.1l1.4,5.3l1.1,4c0.7-1.2,1.7-3.1,2.8-5
		C194.6,149,195.6,147.1,196.2,146z"/>
	<path class="st0" d="M212.8,159.5c-0.8,0.1-1.6-0.1-2.2-0.7l-5.8-5.2l-2.6,4.8l4.4,3.9c0.6,0.6,1.5,0.8,2.2,0.7
		c0.5-0.1,8.3-1.4,9.2-1.5c1.3-0.2,2.2-1,2.6-2.1c0.3,0,0.5-0.1,0.6-0.1c1.2-0.2,2.1-0.9,2.5-2c-0.4,0.3-0.9,0.5-1.5,0.6
		C221.3,158.1,213.4,159.4,212.8,159.5z"/>
	<path class="st0" d="M194,162.7c-0.3,0-0.5,0.1-0.8,0.1l0,0c-0.7,0-1.5-0.2-2.1-0.6c-0.1,0.1-0.2,0.2-0.3,0.4
		c-0.7,0.7-1.6,1-2.4,1.1l-8,1.3c-0.1,0-0.2,0-0.4,0c-1,0-1.8-0.6-2.1-1.6l-5.7-21.5c-0.2,2.4-0.5,5.4-0.8,8.4
		c-0.2,2.2-0.4,4.4-0.6,6.4l2.7,10.3c0.3,1,1.1,1.6,2.1,1.6c0.1,0,0.2,0,0.4,0l8-1.3c0.8-0.1,1.7-0.4,2.4-1.1
		c0.1-0.1,0.4-0.4,0.5-0.5c0.6,0.4,1.4,0.6,2.1,0.6l0,0c0.2,0,0.5,0,0.8-0.1c1-0.2,5-0.7,5-0.7c0.7-0.1,1.3-0.4,1.7-1.2l0.5-0.9
		c0.6-0.1,1-0.1,1-0.1c0.7-0.1,1.3-0.4,1.7-1.2l0.3-0.5c-0.3,0.2-0.6,0.3-0.9,0.3C199.2,161.8,195.1,162.5,194,162.7z"/>
	<path class="st0" d="M126.6,140.4c0.8,1.2,16.2,26.4,16.2,26.4c0.7,1.1,2.3,1.4,4.8,1c2.4-0.4,3.8-1.3,3.9-2.9l0.9-14l7.9,12.9
		c0.8,1.3,2.4,1.5,4.6,1.1c2.5-0.4,4-1.2,4.1-2.7c0,0,2.3-25.7,2.4-26.9c0.1-1.5-1-2.7-2.6-2.6c-1.1,0.1-3.2,0.3-3.2,0.3
		s-1.6,16.6-1.7,17.7c-0.6-1-9.3-14.6-9.3-14.6c-0.8-1.4-1.8-1.8-3.9-1.6c-1.9,0.2-3,0.7-3.1,2.3l-1.3,16.4L136,136.4
		c0,0-6.2,0.7-8.1,0.9C126.4,137.5,125.7,139,126.6,140.4z"/>
	<path class="st0" d="M199.4,144.9c0,0-6.4,11.6-6.7,12.3c-0.9,1.6,0,2.8,1.6,2.5c1-0.2,4.9-0.8,4.9-0.8l5.3-9.5l8.2,7.3
		c0,0,9-1.5,9.9-1.7c1.1-0.2,1.5-1.5,0.6-2.4c-0.8-0.7-13.2-11.5-13.2-11.5s5.6-10.2,6-11c0.7-1.3,0-2.5-1.5-2.3
		c-1,0.1-4.7,0.5-4.7,0.5l-4.7,8.6l-8.2-7.2c0,0-9.2,1-10,1.1c-1.1,0.1-1.6,1.5-0.7,2.4C186.4,133.5,199.4,144.9,199.4,144.9z"/>
	<path class="st0" d="M173.3,134.3l7.3,27.7l8-1.3c1.4-0.2,1.9-1,1.5-2.5l-7.1-26.9l-8.2,0.9C173.7,132.2,173,133.2,173.3,134.3z"/>
	<path class="st0" d="M100.3,137.7l10.9-1.1c1.2-0.1,1.7,0.3,2,1.2l8.9,34l8.5-1.4c1.2-0.2,1.8-1.1,1.5-2.2l-7.8-29.6
		c-0.2-0.9-0.8-1.6-2.2-1.7l-3.1-0.3c-0.5-0.1-0.7-0.1-0.7-0.4c0-0.2,0.1-0.4,0.4-0.4l14-1.5c1.3-0.1,1.8-0.9,1.5-2.1l-1.1-4.8
		l-32.9,3.1c-0.9,0.1-1.6,0.8-1.3,1.9L100.3,137.7z"/>
	<path class="st0" d="M177.3,130.8c1.9-0.2,3.4-1.3,4-2.9c0.6-1.1,0.9-2.4,0.5-3.8c-0.8-3-3.9-5.3-7-5c-0.8,0.1-1.5,0.3-2.1,0.7
		c-2.2,0.9-3.3,3.3-2.6,5.9C170.9,128.8,174.1,131.1,177.3,130.8z M172.2,122.2c0.5-0.7,1.4-1.2,2.4-1.3c0.1,0,0.2,0,0.4,0
		c2.2,0,4.5,1.7,5,3.8c0.3,1,0.1,2-0.4,2.8s-1.4,1.2-2.4,1.4c-0.1,0-0.3,0-0.4,0c-2.2,0-4.4-1.7-4.9-3.9
		C171.5,124,171.7,123,172.2,122.2z"/>
	<path class="st0" d="M176.8,127.2c0.1,0.3,0.4,0.5,0.7,0.4l0.7-0.1c0.3,0,0.5-0.3,0.4-0.5l-1.2-4.6c-0.1-0.3-0.4-0.5-0.7-0.4H176
		c-0.3,0-0.5,0.3-0.4,0.5L176.8,127.2z"/>
	<path class="st0" d="M174.6,127.4c0.1,0.3,0.4,0.5,0.7,0.4l0.7-0.1c0.3,0,0.5-0.3,0.4-0.5l-1.2-4.6c-0.1-0.3-0.4-0.5-0.7-0.4
		l-0.7,0.1c-0.3,0-0.5,0.3-0.4,0.5L174.6,127.4z"/>
	<path class="st0" d="M66.5,34.2c0,0.6,0.1,1.3,0.3,1.9c0.4,5.5,1,10.6,1.8,15.2c0.2,1.2,1.3,2.1,2.5,2.1h177.5
		c1.3,0,2.3-0.9,2.5-2.1c0.8-4.7,1.4-9.8,1.8-15.3c0.2-0.6,0.3-1.2,0.3-1.8v-2.8c0.1-2.8,0.2-5.2,0.2-6.9c0-0.3-0.1-0.7-0.2-1v-0.7
		c0-3.2-2.6-5.8-5.8-5.8c-1.6,0-3.1,0.7-4.2,1.8c-1.1-1.1-2.5-1.8-4.2-1.8c-1.6,0-3.1,0.7-4.2,1.8c-1.1-1.1-2.5-1.8-4.2-1.8
		c-1.6,0-3.1,0.7-4.2,1.8c-1.1-1.1-2.5-1.8-4.2-1.8c-1.6,0-3.1,0.7-4.2,1.8c-1.1-1.1-2.5-1.8-4.2-1.8c-1.6,0-3.1,0.7-4.2,1.8
		c-1.1-1.1-2.5-1.8-4.2-1.8c-1.6,0-3.1,0.7-4.2,1.8c-1.1-1.1-2.5-1.8-4.2-1.8c-1.6,0-3.1,0.7-4.2,1.8c-1.1-1.1-2.5-1.8-4.2-1.8
		c-1.6,0-3.1,0.7-4.2,1.8c-1.1-1.1-2.5-1.8-4.2-1.8c-1.6,0-3.1,0.7-4.2,1.8c-1.1-1.1-2.5-1.8-4.2-1.8c-1.6,0-3.1,0.7-4.2,1.8
		c-1.1-1.1-2.5-1.8-4.2-1.8c-1.6,0-3.1,0.7-4.2,1.8c-1.1-1.1-2.5-1.8-4.2-1.8c-1.6,0-3.1,0.7-4.2,1.8c-1.1-1.1-2.5-1.8-4.2-1.8
		c-1.6,0-3.1,0.7-4.2,1.8c-1.1-1.1-2.5-1.8-4.2-1.8s-3.1,0.7-4.2,1.8c-1.1-1.1-2.5-1.8-4.2-1.8s-3.1,0.7-4.2,1.8
		c-1.1-1.1-2.5-1.8-4.2-1.8c-1.6,0-3.1,0.7-4.2,1.8c-1.1-1.1-2.5-1.8-4.2-1.8c-1.6,0-3.1,0.7-4.2,1.8c-1.1-1.1-2.5-1.8-4.2-1.8
		c-1.6,0-3.1,0.7-4.2,1.8c-1.1-1.1-2.5-1.8-4.2-1.8c-1.6,0-3.1,0.7-4.2,1.8c-1.1-1.1-2.5-1.8-4.2-1.8c-1.6,0-3.1,0.7-4.2,1.8
		c-1.1-1.1-2.5-1.8-4.2-1.8c-1.6,0-3.1,0.7-4.2,1.8C74.1,17.7,72.7,17,71,17c-3.2,0-5.8,2.6-5.8,5.8v0.6c-0.1,0.3-0.2,0.7-0.2,1.1
		c0,1.6,0.1,3.9,0.2,6.4v3.3H66.5z M76.5,28.9l4.2-4.3l4.2,4.3l4.2-4.3l4.2,4.3l4.2-4.3l4.2,4.3l4.2-4.3l4.2,4.3l4.2-4.3l4.2,4.3
		l4.2-4.3l4.2,4.3l4.2-4.3l4.2,4.3l4.2-4.3l4.2,4.3l4.2-4.3l4.2,4.3l4.2-4.3l4.2,4.3l4.2-4.3l4.2,4.3l4.2-4.3l4.2,4.3l4.2-4.3
		l4.2,4.3l4.2-4.3l4.2,4.3l4.2-4.3l4.2,4.3l4.2-4.3l4.2,4.3l4.2-4.3l4.2,4.3l4.2-4.3l4.2,4.3l4.2-4.3l4.2,4.3l4.2-4.3l4.2,4.3
		l3.2-3.3l0,0c0,1.4-0.1,3.3-0.2,5.5v0.2v0.2v2.6l-0.2,0.6l-0.1,0.8c-0.3,3.9-0.7,7.5-1.1,11H74.9c-0.5-3.4-0.9-7.1-1.1-10.9
		l-0.1-0.9L73.5,34v-3v-0.2v-0.2c-0.1-1.9-0.2-3.7-0.2-5L76.5,28.9z"/>
	<path class="st0" d="M255.3,268.8v-3.3c0-0.6-0.1-1.3-0.3-1.9c-0.4-5.6-1-10.8-1.8-15.6c-0.2-1.2-1.3-2.1-2.5-2.1H69.3
		c-1.3,0-2.3,0.9-2.5,2.1c-0.8,4.8-1.4,10-1.8,15.6c-0.2,0.6-0.3,1.2-0.3,1.8v2.8c-0.1,2.9-0.2,5.3-0.2,7c0,0.3,0.1,0.7,0.2,1v0.7
		c0,3.2,2.6,5.9,5.9,5.9c1.7,0,3.2-0.7,4.3-1.8c1.1,1.1,2.6,1.8,4.3,1.8c1.7,0,3.2-0.7,4.3-1.8c1.1,1.1,2.6,1.8,4.3,1.8
		c1.7,0,3.2-0.7,4.3-1.8c1.1,1.1,2.6,1.8,4.3,1.8c1.7,0,3.2-0.7,4.3-1.8c1.1,1.1,2.6,1.8,4.3,1.8c1.7,0,3.2-0.7,4.3-1.8
		c1.1,1.1,2.6,1.8,4.3,1.8c1.7,0,3.2-0.7,4.3-1.8c1.1,1.1,2.6,1.8,4.3,1.8c1.7,0,3.2-0.7,4.3-1.8c1.1,1.1,2.6,1.8,4.3,1.8
		c1.7,0,3.2-0.7,4.3-1.8c1.1,1.1,2.6,1.8,4.3,1.8c1.7,0,3.2-0.7,4.3-1.8c1.1,1.1,2.6,1.8,4.3,1.8c1.7,0,3.2-0.7,4.3-1.8
		c1.1,1.1,2.6,1.8,4.3,1.8s3.2-0.7,4.3-1.8c1.1,1.1,2.6,1.8,4.3,1.8s3.2-0.7,4.3-1.8c1.1,1.1,2.6,1.8,4.3,1.8s3.2-0.7,4.3-1.8
		c1.1,1.1,2.6,1.8,4.3,1.8s3.2-0.7,4.3-1.8c1.1,1.1,2.6,1.8,4.3,1.8s3.2-0.7,4.3-1.8c1.1,1.1,2.6,1.8,4.3,1.8s3.2-0.7,4.3-1.8
		c1.1,1.1,2.6,1.8,4.3,1.8s3.2-0.7,4.3-1.8c1.1,1.1,2.6,1.8,4.3,1.8s3.2-0.7,4.3-1.8c1.1,1.1,2.6,1.8,4.3,1.8s3.2-0.7,4.3-1.8
		c1.1,1.1,2.6,1.8,4.3,1.8s3.2-0.7,4.3-1.8c1.1,1.1,2.6,1.8,4.3,1.8s3.2-0.7,4.3-1.8c1.1,1.1,2.6,1.8,4.3,1.8c3.2,0,5.9-2.6,5.9-5.9
		v-0.6c0.1-0.3,0.2-0.7,0.2-1.1C255.5,273.7,255.5,271.4,255.3,268.8z M245.2,271l-4.3,4.5l-4.3-4.5l-4.3,4.5L228,271l-4.3,4.5
		l-4.3-4.5l-4.3,4.5l-4.3-4.5l-4.3,4.5l-4.3-4.5l-4.3,4.5l-4.3-4.5l-4.3,4.5L185,271l-4.3,4.5L177,271l-4.3,4.5l-4.3-4.5l-4.3,4.5
		L160,271l-4.3,4.5l-4.3-4.5l-4.3,4.5L143,271l-4.3,4.5l-4.3-4.5l-4.3,4.5l-4.3-4.5l-4.3,4.5l-4.3-4.5l-4.3,4.5l-4.3-4.5l-4.3,4.5
		L100,271l-4.3,4.5l-4.3-4.5l-4.3,4.5l-4.3-4.5l-4.3,4.5l-4.3-4.5l-3.3,3.4l-0.1-0.1c0-1.4,0.1-3.4,0.2-5.6v-0.2v-0.2v-2.7l0.2-0.6
		l0.1-0.8c0.3-4,0.7-7.8,1.2-11.3h173.8c0.5,3.5,0.9,7.3,1.2,11.2l0.1,0.9l0.2,0.7v3.1v0.2v0.2c0.1,2.1,0.2,4,0.2,5.3L245.2,271z"/>
	<path class="st0" d="M250.1,59.2H69.7c1.9,8.5,4.9,16.3,9.5,20.6c-1.2,12.9-9,105.9,2.9,134.7c-2.5,3.2-8.4,12-12.1,26.8h179.9
		c-3.7-14.9-9.6-23.6-12.1-26.8c11.9-28.7,4.1-121.8,2.9-134.7C245.2,75.5,248.2,67.7,250.1,59.2z M235.8,74.6l-2.5,2.3l0.3,3.4
		c3.4,38.3,6.8,109.2-2.4,131.3l-1.6,3.8l2.5,3.2c1.3,1.6,5,6.8,8.2,15.5h-161c3.2-8.8,6.9-13.9,8.1-15.5l2.5-3.2l-1.6-3.8
		c-9.2-22.2-5.9-93-2.4-131.3l0.3-3.4l-2.5-2.3c-1.2-1.1-3-3.4-4.9-8.4h161.8C238.9,71.2,237,73.5,235.8,74.6z"/>
</g>
</svg>
