<?xml version="1.0" encoding="utf-8"?>
<!-- Generator: Adobe Illustrator 25.2.3, SVG Export Plug-In . SVG Version: 6.00 Build 0)  -->
<svg version="1.1" id="Layer_1" xmlns="http://www.w3.org/2000/svg" xmlns:xlink="http://www.w3.org/1999/xlink" x="0px" y="0px"
	 viewBox="0 0 320 300" style="enable-background:new 0 0 320 300;" xml:space="preserve">
<style type="text/css">
	.st0{fill:#FFFFFF;}
</style>
<g>
	<path class="st0" d="M290,174.4l-4.2-4.2V78.3c0-8.6-7-15.5-15.5-15.5h-91.9l-4.2-4.2c-0.8-0.8-2-1.3-3.2-1.3h-44.1
		c-1.8,0-3.5,1.1-4.2,2.8c-0.4,0.9-0.4,1.8-0.2,2.7H44.2c-8.6,0-15.5,7-15.5,15.5v148.8c0,8.6,7,15.5,15.5,15.5h226
		c8.6,0,15.5-7,15.5-15.5V226c0.3,0.1,0.7,0.1,1,0.1c0.6,0,1.2-0.1,1.7-0.3c1.7-0.7,2.8-2.3,2.8-4.2v-44.1
		C291.3,176.4,290.8,175.2,290,174.4z M270.3,71.8c3.6,0,6.5,2.9,6.5,6.5v82.9l-25-25l5.1-5.1c0.8-0.8,1.3-2,1.3-3.2
		c0-1.2-0.5-2.3-1.3-3.2l-9.7-9.7v-14.6c0-2.5-2-4.5-4.5-4.5H228l-9.7-9.7c-0.8-0.8-2-1.3-3.2-1.3s-2.3,0.5-3.2,1.3l-5.1,5.1
		l-19.5-19.5C187.3,71.8,270.3,71.8,270.3,71.8z M282.3,210.8L231.5,160h11.2c2.5,0,4.5-2,4.5-4.5v-11.2l35.1,35.1V210.8z
		 M190.7,135.8l-7.8-7.8l7.8-7.8c0.8-0.8,1.3-2,1.3-3.2v-12h12c1.2,0,2.3-0.5,3.2-1.3l7.8-7.8l7.8,7.8c0.8,0.8,2,1.3,3.2,1.3h12v12
		c0,1.2,0.5,2.3,1.3,3.2l7.8,7.8l-7.8,7.8c-0.8,0.8-1.3,2-1.3,3.2v12h-12c-1.2,0-2.3,0.5-3.2,1.3l-7.8,7.8l-7.8-7.8
		c-0.8-0.8-2-1.3-3.2-1.3h-12v-12C192.1,137.8,191.6,136.6,190.7,135.8z M169.2,66.3l29.6,29.6h-11.2c-2.5,0-4.5,2-4.5,4.5v11.2
		l-45.3-45.3H169.2z M270.3,233.7h-226c-3.6,0-6.5-2.9-6.5-6.5V78.3c0-3.6,2.9-6.5,6.5-6.5h86.3l47.9,47.9l-5.1,5.1
		c-0.8,0.8-1.3,2-1.3,3.2s0.5,2.3,1.3,3.2l9.7,9.7v14.7c0,2.5,2,4.5,4.5,4.5h14.7l9.7,9.7c0.8,0.8,2,1.3,3.2,1.3s2.3-0.5,3.2-1.3
		l5.1-5.1l53.4,53.4v9.2C276.8,230.8,273.9,233.7,270.3,233.7z"/>
	<path class="st0" d="M79.4,192c-2-0.5-4.2,0.5-5.2,2.4c-0.3,0.6-1.4,2.7-3.1,6.2c-0.1,0.3-0.3,0.5-0.4,0.8h5.1
		c0.9-1.7,1.4-2.9,1.8-3.6v17.8c0,1.3,1,2.3,2.3,2.3c1.3,0,2.3-1,2.3-2.3v-20C82.2,193.9,81.1,192.5,79.4,192z"/>
	<path class="st0" d="M67.2,208.7c-2.2-4.6-6.3-12.9-7.1-14.2c-1-1.9-3.2-2.9-5.2-2.4c-1.7,0.4-2.8,1.8-2.8,3.6v20
		c0,1.3,1,2.3,2.3,2.3s2.3-1,2.3-2.3v-17.8c1.5,2.9,4.8,9.7,7.6,15.4c0.5,1.1,1.6,1.8,2.9,1.8c1.2,0,2.3-0.7,2.9-1.8
		c0.7-1.4,2.8-5.7,4.7-9.5h-5.1C68.7,205.5,67.8,207.3,67.2,208.7z"/>
	<path class="st0" d="M185.2,192c-2-0.5-4.2,0.5-5.2,2.4c-0.7,1.3-4.7,9.4-7.1,14.2c-2.4-4.8-6.3-12.9-7.1-14.2
		c-1-1.9-3.2-2.9-5.2-2.4c-1.7,0.4-2.8,1.8-2.8,3.6v20c0,1.3,1,2.3,2.3,2.3s2.3-1,2.3-2.3v-17.8c1.4,2.8,4.7,9.4,7.6,15.4
		c0.5,1.1,1.6,1.8,2.9,1.8s2.3-0.7,2.9-1.8c2.9-6,6.2-12.6,7.6-15.4v17.8c0,1.3,1,2.3,2.3,2.3s2.3-1,2.3-2.3v-20
		C188,193.9,186.9,192.5,185.2,192z"/>
	<path class="st0" d="M120.8,193c-0.4-0.9-1.3-1.4-2.3-1.4s-1.9,0.6-2.3,1.5l-9.5,21.6c-0.5,1.2,0,2.5,1.2,3
		c0.3,0.1,0.6,0.2,0.9,0.2c0.9,0,1.7-0.5,2.1-1.4l7.7-17.5l8.3,17.6c0.5,1.1,1.9,1.6,3.1,1.1c1.1-0.5,1.6-1.9,1.1-3.1L120.8,193z"/>
	<path class="st0" d="M204.9,193c-0.4-0.9-1.3-1.4-2.3-1.4l0,0c-1,0-1.9,0.6-2.3,1.5l-9.5,21.6c-0.5,1.2,0,2.5,1.2,3
		c0.3,0.1,0.6,0.2,0.9,0.2c0.9,0,1.7-0.5,2.1-1.4l2.2-4.9h11.5l2.4,5c0.5,1.1,1.9,1.6,3.1,1.1c1.1-0.5,1.6-1.9,1.1-3.1L204.9,193z
		 M199.2,207.1l3.5-8l3.8,8H199.2z"/>
	<path class="st0" d="M236.6,192c-1.3,0-2.3,1-2.3,2.3v8.2h-12.1v-8.2c0-1.3-1-2.3-2.3-2.3s-2.3,1-2.3,2.3v21.4c0,1.3,1,2.3,2.3,2.3
		s2.3-1,2.3-2.3v-8.6h12.1v8.6c0,1.3,1,2.3,2.3,2.3s2.3-1,2.3-2.3v-21.4C238.9,193,237.9,192,236.6,192z"/>
	<path class="st0" d="M90.2,196.5h12.1c1.3,0,2.3-1,2.3-2.3s-1-2.3-2.3-2.3H90.2c-2.8,0-5.1,2.3-5.1,5.1v15.8c0,2.8,2.3,5.1,5.1,5.1
		h12.1c1.3,0,2.3-1,2.3-2.3s-1-2.3-2.3-2.3H90.2c-0.3,0-0.5-0.2-0.5-0.5V207H101c1.3,0,2.3-1,2.3-2.3s-1-2.3-2.3-2.3H89.7V197
		C89.7,196.7,89.9,196.5,90.2,196.5z"/>
	<path class="st0" d="M145.7,191.9h-5c-5.3,0-9.6,4.3-9.6,9.6v6.9c0,5.3,4.3,9.6,9.6,9.6h5c5.3,0,9.6-4.3,9.6-9.6v-6.9
		C155.2,196.2,150.9,191.9,145.7,191.9z M150.6,208.4c0,2.7-2.2,5-5,5h-5c-2.7,0-5-2.2-5-5v-6.9c0-2.7,2.2-5,5-5h5c2.7,0,5,2.2,5,5
		V208.4z"/>
</g>
</svg>
