    <svg version="1.1" id="Layer_1" xmlns="http://www.w3.org/2000/svg" xmlns:xlink="http://www.w3.org/1999/xlink" x="0px" y="0px"
    viewBox="0 0 1088 400" style="enable-background:new 0 0 1088 400;" xml:space="preserve">
    <style type="text/css">
    .st0{fill:#fff; }
    #loading_prize_01 {
      animation: loading-prize-anim-01;
      animation-duration: 1.6s;
      animation-iteration-count: infinite;
      animation-timing-function: ease-in-out;
    }
    #loading_prize_02 {
      animation: loading-prize-anim-02;
      animation-duration: 1.6s;
      animation-iteration-count: infinite;
      animation-timing-function: ease-in-out;
    }
    #loading_prize_03 {
      animation: loading-prize-anim-03;
      animation-duration: 1.6s;
      animation-iteration-count: infinite;
      animation-timing-function: ease-in-out;
    }
    #loading_prize_04 {
      animation: loading-prize-anim-04;
      animation-duration: 1.6s;
      animation-iteration-count: infinite;
      animation-timing-function: ease-in-out;
    }
    @keyframes loading-prize-anim-01 {
      0% {
        transform: translateY(0px);
      }
      20% {
        transform: translateY(-100px);
      }
      40% {
        transform: translateY(0px);
      }
      100% {
        transform: translateY(0px);
      }
    }
    @keyframes loading-prize-anim-02 {
      0% {
        transform: translateY(0px);
      }
      20% {
        transform: translateY(0px);
      }
      40% {
        transform: translateY(-100px);
      }
      60% {
        transform: translateY(0px);
      }
      100% {
        transform: translateY(0px);
      }
    }
    @keyframes loading-prize-anim-03 {
      0% {
        transform: translateY(0px);
      }
      40% {
        transform: translateY(0px);
      }
      60% {
        transform: translateY(-100px);
      }
      80% {
        transform: translateY(0px);
      }
      100% {
        transform: translateY(0px);
      }
    }
    @keyframes loading-prize-anim-04 {
      0% {
        transform: translateY(0px);
      }
      60% {
        transform: translateY(0px);
      }
      80% {
        transform: translateY(-100px);
      }
      100% {
        transform: translateY(0px);
      }
    }
    
    </style>
    <g id="loading_prize_01">
    <path class="st0" d="M215.1,282.1h-11.4c9.8-9.3,15.4-22.2,15.4-35.9c0-27.3-22.2-49.5-49.5-49.5H58.4c-27.3,0-49.5,22.2-49.5,49.5
      c0,13.6,5.6,26.5,15.4,35.9H12.9c-2.2,0-4,1.8-4,4V346c0,27.3,22.2,49.4,49.4,49.4h111.3c27.3,0,49.4-22.2,49.4-49.4v-59.9
      C219.1,283.9,217.3,282.1,215.1,282.1z M58.4,204.8h111.2c22.9,0,41.5,18.6,41.5,41.5c0,14.7-7.9,28.4-20.6,35.9h-3.8l11.2-23.2
      c0.1-0.2,0.2-0.5,0.3-0.8c1.2-3,1.8-6.1,1.9-9.3c0.3-8.5-3.2-16.5-9.8-22.6c-6.4-6-15.1-9.4-24.4-9.7c-8.9-0.3-17.5,2.5-24.2,7.7
      l-6.7-0.2c-8.6-0.2-15.9,6.6-16.2,15.2l-0.5,13.8c-0.3,8.6,6.6,15.9,15.2,16.2l6.2,0.2c4.7,4.3,10.5,7.2,17,8.6l-1.9,4H73.2l-1.9-4
      c6.5-1.4,12.4-4.4,17-8.6l6.2-0.2c4.2-0.1,8.1-1.9,10.9-4.9c2.9-3.1,4.4-7,4.3-11.2l-0.4-13.9c-0.3-8.6-7.5-15.4-16.2-15.2
      l-6.7,0.2c-6.7-5.3-15.3-8-24.2-7.7c-9.3,0.3-18,3.7-24.4,9.7c-6.6,6.1-10.1,14.2-9.8,22.6c0.1,3.2,0.7,6.3,1.9,9.3
      c0.1,0.3,0.2,0.5,0.3,0.8l11.1,23.1h-3.8c-12.7-7.4-20.6-21.1-20.6-35.9C16.9,223.4,35.5,204.8,58.4,204.8z M188.2,260.8
      l-10.3,21.3h-14.2l5.6-11.5c0.5-1,0.5-2,0.2-3c-0.4-1-1.1-1.8-2-2.3c-1-0.5-2-0.5-3-0.2c-1,0.4-1.8,1.1-2.3,2l-1.7,3.6
      c-5.9-0.9-11.2-3.4-15.4-7.2l0,0l1-32.4c5.3-4.4,12.3-6.7,19.7-6.5s14.2,2.9,19.2,7.6c4.9,4.5,7.5,10.4,7.3,16.5
      c-0.1,3.4-1.1,6.7-2.9,9.8l-1.5,2.6L188.2,260.8z M137,261.4l-3.2-0.1c-2.1-0.1-4-0.9-5.4-2.4c-1.4-1.5-2.2-3.5-2.1-5.5l0.4-13.9
      c0.1-4.1,3.6-7.5,7.7-7.5l3.5,0.1L137,261.4z M63.7,265c-1-0.4-2.1-0.3-3,0.2c-1,0.5-1.7,1.3-2,2.3s-0.3,2.1,0.2,3l5.6,11.6H50.1
      l-10.3-21.3l0.5,0.2l-1.5-2.5c-1.8-3.1-2.8-6.4-2.9-9.8c-0.2-6.1,2.4-12,7.3-16.5c5-4.7,11.9-7.4,19.2-7.6
      c7.4-0.2,14.4,2.1,19.7,6.5l1,32.4l0,0c-4.1,3.8-9.4,6.3-15.4,7.2l-1.7-3.6C65.5,266.1,64.7,265.4,63.7,265z M101.3,239.5l0.4,13.9
      c0.1,2.1-0.7,4-2.1,5.5s-3.3,2.4-5.4,2.4l-3.2,0.1l-0.8-29.3l3.2-0.1h0.2C97.7,232,101.2,235.3,101.3,239.5z M211.1,290.1V346
      c0,22.9-18.6,41.5-41.5,41.5H58.4c-22.9,0-41.5-18.6-41.5-41.5v-55.9L211.1,290.1L211.1,290.1z"/>
    <path class="st0" d="M165.4,243.1h-14.1c-2.2,0-4,1.8-4,4s1.8,4,4,4h14.1c2.2,0,4-1.8,4-4C169.4,244.8,167.6,243.1,165.4,243.1z"/>
    <path class="st0" d="M80.7,247c0-2.2-1.8-4-4-4H62.6c-2.2,0-4,1.8-4,4s1.8,4,4,4h14.1C78.9,251,80.7,249.2,80.7,247z"/>
    <path class="st0" d="M114,345.1c3.5,0,6.3-2.8,6.3-6.3s-2.8-6.3-6.3-6.3s-6.3,2.8-6.3,6.3S110.5,345.1,114,345.1z"/>
    </g>
    <g id="loading_prize_02">
    <path class="st0" d="M528.9,196c9.1,0,16.5-7.4,16.5-16.5v-46.8c0-9.1-7.4-16.5-16.5-16.5H324.3c-9.1,0-16.5,7.4-16.5,16.5v46.8
      c0,9.1,7.4,16.5,16.5,16.5h6.3v154.4h-7.2c-8.6,0-15.6,7-15.6,15.6v13.4c0,8.6,7,15.6,15.6,15.6h206.3c8.6,0,15.6-7,15.6-15.6V366
      c0-8.6-7-15.6-15.6-15.6h-7.1V196H528.9z M324.3,188.2c-4.8,0-8.7-3.9-8.7-8.7v-46.8c0-4.8,3.9-8.7,8.7-8.7H529
      c4.8,0,8.7,3.9,8.7,8.7v46.8c0,4.8-3.9,8.7-8.7,8.7h-6.4h-71.8h-48.3h-71.9H324.3z M437.3,222.4H416c-3.2,0-5.7-2.6-5.7-5.7V196
      h32.8v20.8C443,219.9,440.4,222.4,437.3,222.4z M423.2,230.2h6.8v4.8h-6.8V230.2z M529.8,358.2c4.3,0,7.9,3.5,7.9,7.9v13.4
      c0,4.3-3.5,7.9-7.9,7.9H323.4c-4.3,0-7.9-3.5-7.9-7.9v-13.4c0-4.3,3.5-7.9,7.9-7.9h7.2h192H529.8z M464.6,299.6H475
      c4.7,0,8.6,3.9,8.6,8.6c0,3-1.6,5.9-4.2,7.4l-17.6,10.3L464.6,299.6z M457.6,291.8L457.6,291.8l-5.4,48.7l0,0l-1.1,9.9h-49.2
      l-7.5-67.7h64.2L457.6,291.8z M514.8,350.4H459l1.6-14.8l22.6-13.3c5-2.9,8.1-8.3,8.1-14.1c0-9-7.3-16.4-16.4-16.4h-9.5l1.9-16.9
      h-81.5l8.3,75.5h-55.7V196h64v20.8c0,7.3,5.8,13.2,13,13.5v5.8c0,3.8,3.1,6.8,6.8,6.8h8.7c3.8,0,6.8-3.1,6.8-6.8v-5.8
      c7.2-0.3,13-6.2,13-13.5V196h64L514.8,350.4L514.8,350.4z"/>
    <path class="st0" d="M482.9,159.9v-7.6c0-9.1-7.4-16.5-16.5-16.5h-79.6c-9.1,0-16.5,7.4-16.5,16.5v7.6c0,9.1,7.4,16.5,16.5,16.5
      h79.6C475.5,176.4,482.9,169,482.9,159.9z M378.1,159.9v-7.6c0-4.8,3.9-8.7,8.7-8.7h79.6c4.8,0,8.7,3.9,8.7,8.7v7.6
      c0,4.8-3.9,8.7-8.7,8.7h-79.6C382,168.6,378.1,164.7,378.1,159.9z"/>
    <rect x="390.6" y="151.7" class="st0" width="39" height="7.8"/>
    <rect x="444.3" y="151.7" class="st0" width="15.5" height="7.8"/>
    </g>
    <g id="loading_prize_03">
    <path class="st0" d="M758.7,134.7c-3.9-3.9-9-6-14.5-6h-89.6c-5.5,0-10.6,2.1-14.5,6c-3.9,3.9-6,9-6,14.5v225.3
      c0,5.5,2.1,10.6,6,14.5s9,6,14.5,6h89.6c5.5,0,10.6-2.1,14.5-6s6-9,6-14.5V149.2C764.7,143.7,762.5,138.5,758.7,134.7z
       M655.9,136.5h87c7.5,0,13.7,6.3,13.7,14v222.6c0,7.7-6.1,14-13.7,14h-87c-7.5,0-13.7-6.3-13.7-14V150.5
      C642.2,142.8,648.4,136.5,655.9,136.5z M655.9,387.9L655.9,387.9c-1.5,0-3-0.2-4.4-0.7C652.9,387.6,654.4,387.9,655.9,387.9z
       M650.8,386.9c-0.4-0.2-0.8-0.4-1.2-0.6C649.9,386.5,650.3,386.6,650.8,386.9z M648.6,385.8c-0.1-0.1-0.2-0.1-0.4-0.2
      C648.4,385.6,648.5,385.8,648.6,385.8z M647.5,385.1c-0.2-0.2-0.5-0.4-0.7-0.5C647,384.6,647.3,384.9,647.5,385.1z M646.7,384.5
      c-0.2-0.1-0.3-0.3-0.5-0.4C646.4,384.1,646.6,384.2,646.7,384.5z M641.5,150.5c0-2.4,0.6-4.7,1.6-6.7
      C642.1,145.8,641.5,148.1,641.5,150.5v222.6c0,2.5,0.6,4.9,1.7,7c-1.1-2.1-1.7-4.4-1.7-7V150.5z M645.5,140.4L645.5,140.4
      L645.5,140.4z M645.1,140.9C645,140.9,645,140.9,645.1,140.9C645,140.9,645,140.9,645.1,140.9z M643.7,142.7
      c-0.1,0.1-0.2,0.3-0.2,0.4C643.6,143,643.6,142.8,643.7,142.7z M643.4,143.3c-0.1,0.2-0.2,0.4-0.3,0.5
      C643.2,143.6,643.3,143.4,643.4,143.3z M645.7,383.6c-0.7-0.7-1.3-1.5-1.9-2.3C644.4,382.1,645,382.9,645.7,383.6z M643.7,381
      c-0.2-0.2-0.3-0.5-0.4-0.7C643.4,380.5,643.6,380.6,643.7,381z M634.8,149.2c0-3.5,0.9-6.9,2.6-9.8
      C635.8,142.3,634.8,145.6,634.8,149.2v225.3c0,4.4,1.4,8.4,3.8,11.7c-2.4-3.3-3.8-7.3-3.8-11.7V149.2z M638.3,137.9
      c-0.1,0.1-0.2,0.3-0.3,0.4C638.1,138.2,638.2,138.1,638.3,137.9z M639,386.6c0.3,0.4,0.6,0.8,1,1.2
      C639.6,387.5,639.3,387.1,639,386.6z M640.6,388.5L640.6,388.5L640.6,388.5z M758.2,388.5L758.2,388.5L758.2,388.5z M764,374.5
      c0,4.9-1.8,9.5-4.8,12.9c-0.2,0.2-0.3,0.4-0.5,0.5c0.2-0.2,0.3-0.4,0.5-0.5C762.2,384,764,379.5,764,374.5V149.1
      c0-3.5-0.9-6.9-2.6-9.8c1.6,2.9,2.6,6.2,2.6,9.8V374.5z M760,137.2c0.1,0.1,0.1,0.2,0.2,0.3C760.1,137.4,760,137.3,760,137.2z
       M760.5,137.9c0.1,0.1,0.2,0.3,0.3,0.4C760.7,138.2,760.6,138.1,760.5,137.9z M760.9,138.6c0.1,0.2,0.3,0.4,0.4,0.6
      C761.2,139,761.1,138.8,760.9,138.6z"/>
    <path class="st0" d="M686,155.7h26.8c3.2,0,5.8-2.6,5.8-5.8c0-3.2-2.6-5.8-5.8-5.8H686c-3.2,0-5.8,2.6-5.8,5.8
      C680.2,153.1,682.8,155.7,686,155.7z"/>
    </g>
    <g id="loading_prize_04">
    <path class="st0" d="M1057.4,167.9c-2.7-6.1-8.7-10-15.3-10l0,0h-34.6c-1.9-4.7-3.9-9.8-6.2-15.2c-0.4-1-0.7-1.8-0.8-2
      c-0.4-1.2-1.5-2.1-2.8-2.3c-0.1,0-3.2-0.4-8.6-0.9c-0.2-0.3-0.4-0.6-0.6-0.8c-9.5-9.4-22.2-14.7-35.7-14.7
      c-13.6,0-26.3,5.3-35.9,15c-0.2,0.2-0.3,0.3-0.4,0.5c-5.9,0.5-9.5,1-9.6,1c-1.3,0.2-2.4,1.1-2.8,2.3c-0.1,0.2-0.4,1-0.8,2
      c-1.8,4.3-3.4,8.3-5,12.2H865c-1.9,0-3.5,1.6-3.5,3.5c0,0.8,0.1,19.7,12.8,68.6c-6.1,27.8-9.1,59-10.5,81.8
      c-1.9,28.7-1.8,50.6-1.8,50.8c0,1.4,0.9,2.7,2.2,3.2c0.1,0.1,1.9,0.7,5.3,1.7v17.8c0,1.6,1,2.9,2.6,3.4c12.4,3.5,39.3,9.2,80.3,9.2
      l0,0l0,0l0,0l0,0c40.9,0,67.9-5.8,80.3-9.2c1.5-0.4,2.6-1.8,2.6-3.4v-17.9c3.4-1,5.1-1.7,5.3-1.7c1.3-0.5,2.2-1.8,2.2-3.2
      c0-0.2,0.1-22-1.8-50.8c-0.1-1-0.1-2-0.2-3c14.5-2.7,25-10.5,31.2-23.3c4.9-10.1,7.2-23.2,7.2-41.2
      C1079.1,219.9,1065.5,186.2,1057.4,167.9z M952.8,129c9,0,17.5,2.7,24.7,7.7c-7-0.4-15.4-0.8-24.8-0.8c-8.8,0-17.3,0.3-24.5,0.8
      C935.4,131.7,943.9,129,952.8,129z M895.6,161.9c-10,25.2-15.1,41.1-17.7,50.6c-6.8-28.2-8.6-44-9.2-50.5L895.6,161.9L895.6,161.9z
       M1028.2,379.7c-13,3.4-38.4,8.3-75.8,8.3c-37.5,0-62.8-4.9-75.8-8.3v-13.2c2.9,0.7,6.3,1.5,10.2,2.3c13.4,2.6,35.7,5.8,65.6,5.8
      c29.9,0,52.2-3.2,65.6-5.8c3.9-0.8,7.3-1.6,10.2-2.3V379.7L1028.2,379.7z M1016.3,361.9c-13.1,2.6-34.8,5.6-64,5.6
      s-50.9-3.1-64-5.6c-9.7-1.9-16.2-3.8-19.3-4.8c0-6.4,0.3-24.9,1.7-47.8c1.4-22.4,4.4-53,10.3-80.2c0.4-0.6,0.5-1.3,0.5-2.1
      c0.9-4,1.9-7.9,2.9-11.7c3-11.2,9.9-32.5,25.4-69.8c0-0.1,0.1-0.2,0.1-0.3c5.8-0.7,23.7-2.5,42.9-2.4c20.6,0.1,36.6,1.7,42,2.3
      c0,0.1,0.1,0.2,0.1,0.3c15.5,37.4,22.4,58.6,25.4,69.9c8.2,30.1,11.9,67.7,13.6,93.9c1.5,22.9,1.7,41.4,1.7,47.9
      C1032.5,358.1,1026,360,1016.3,361.9z M1027.1,213.4L1027.1,213.4c-1.5-5.7-4.1-13.9-8.1-25.4h20.6l0,0c2.2,0,4.1,1.3,5,3.2
      c4.2,9.6,14.1,33.3,14.1,47.1c0,23.3-6.2,34.8-20.6,37.6C1035.8,255.4,1032.3,232.9,1027.1,213.4z M1065.6,279.4
      c-5.1,10.6-13.5,17-25.4,19.4c-0.4-5-0.9-10.4-1.4-15.9c10.2-1.9,17.5-7.4,21.9-16.4c3.4-7,4.9-16,4.9-28.3
      c0-14.6-9.2-37.5-14.7-49.9c-2-4.5-6.5-7.4-11.4-7.4l0,0h-23.1c-1.8-4.8-3.8-10.2-6.1-16.1h31.8l0,0c3.9,0,7.4,2.3,9,5.8
      c6.3,14.3,21,49.7,21,70.5C1072.1,258.2,1070,270.3,1065.6,279.4z"/>
    <path class="st0" d="M960,324.3h-15.4c-6.2,0-11.3,5.1-11.3,11.3s5.1,11.3,11.3,11.3H960c6.2,0,11.3-5.1,11.3-11.3
      S966.3,324.3,960,324.3z M960,339.9h-15.4c-2.4,0-4.3-1.9-4.3-4.3s1.9-4.3,4.3-4.3H960c2.4,0,4.3,1.9,4.3,4.3
      S962.4,339.9,960,339.9z"/>
    <path class="st0" d="M952.3,181.9c-11.3,0-20.5,9.2-20.5,20.5v80.3c0,11.3,9.2,20.5,20.5,20.5s20.5-9.2,20.5-20.5v-80.3
      C972.8,191.1,963.6,181.9,952.3,181.9z M952.3,296.1c-7.4,0-13.5-6-13.5-13.5v-80.2c0-7.4,6-13.5,13.5-13.5c7.4,0,13.5,6,13.5,13.5
      v5h-13.1c-1.9,0-3.5,1.6-3.5,3.5s1.6,3.5,3.5,3.5h13.1v8.8h-13.1c-1.9,0-3.5,1.6-3.5,3.5s1.6,3.5,3.5,3.5h13.1v8.8h-13.1
      c-1.9,0-3.5,1.6-3.5,3.5s1.6,3.5,3.5,3.5h13.1v8.8h-13.1c-1.9,0-3.5,1.6-3.5,3.5s1.6,3.5,3.5,3.5h13.1v8.8h-13.1
      c-1.9,0-3.5,1.6-3.5,3.5c0,1.9,1.6,3.5,3.5,3.5h13.1v5C965.8,290.1,959.8,296.1,952.3,296.1z"/>
    </g>
    </svg>