<?xml version="1.0" encoding="utf-8"?>
<!-- Generator: Adobe Illustrator 25.2.3, SVG Export Plug-In . SVG Version: 6.00 Build 0)  -->
<svg version="1.1" id="Layer_1" xmlns="http://www.w3.org/2000/svg" xmlns:xlink="http://www.w3.org/1999/xlink" x="0px" y="0px"
	 viewBox="0 0 1088 300" style="enable-background:new 0 0 1088 300;" xml:space="preserve">
<style type="text/css">
	.st0{fill:#F0BB34;}
<!-- 
	#Pulse{fill: F0BB34; stroke: #D38911; stroke-width: 5; transform: rotateX(80deg);}
	._transformer{transform-box: fill-box; transform-origin: center;} -->
</style>
<g id="loading_prize_01" >
	<path class="st0" d="M215.1,141.2h-11.4c9.8-9.3,15.4-22.2,15.4-35.9c0-27.3-22.2-49.5-49.5-49.5H58.4C31.1,55.8,8.9,78,8.9,105.3
		c0,13.6,5.6,26.5,15.4,35.9H12.9c-2.2,0-4,1.8-4,4v59.9c0,27.3,22.2,49.4,49.4,49.4h111.3c27.3,0,49.4-22.2,49.4-49.4v-59.9
		C219.1,143,217.3,141.2,215.1,141.2z M58.4,63.9h111.2c22.9,0,41.5,18.6,41.5,41.5c0,14.7-7.9,28.4-20.6,35.9h-3.8l11.2-23.2
		c0.1-0.2,0.2-0.5,0.3-0.8c1.2-3,1.8-6.1,1.9-9.3c0.3-8.5-3.2-16.5-9.8-22.6c-6.4-6-15.1-9.4-24.4-9.7c-8.9-0.3-17.5,2.5-24.2,7.7
		l-6.7-0.2c-8.6-0.2-15.9,6.6-16.2,15.2l-0.5,13.8c-0.3,8.6,6.6,15.9,15.2,16.2l6.2,0.2c4.7,4.3,10.5,7.2,17,8.6l-1.9,4H73.2l-1.9-4
		c6.5-1.4,12.4-4.4,17-8.6l6.2-0.2c4.2-0.1,8.1-1.9,10.9-4.9c2.9-3.1,4.4-7,4.3-11.2l-0.4-13.9c-0.3-8.6-7.5-15.4-16.2-15.2
		l-6.7,0.2c-6.7-5.3-15.3-8-24.2-7.7c-9.3,0.3-18,3.7-24.4,9.7C31.2,91.5,27.7,99.6,28,108c0.1,3.2,0.7,6.3,1.9,9.3
		c0.1,0.3,0.2,0.5,0.3,0.8l11.1,23.1h-3.8c-12.7-7.4-20.6-21.1-20.6-35.9C16.9,82.5,35.5,63.9,58.4,63.9z M188.2,119.9l-10.3,21.3
		h-14.2l5.6-11.5c0.5-1,0.5-2,0.2-3c-0.4-1-1.1-1.8-2-2.3c-1-0.5-2-0.5-3-0.2c-1,0.4-1.8,1.1-2.3,2l-1.7,3.6
		c-5.9-0.9-11.2-3.4-15.4-7.2l0,0l1-32.4c5.3-4.4,12.3-6.7,19.7-6.5s14.2,2.9,19.2,7.6c4.9,4.5,7.5,10.4,7.3,16.5
		c-0.1,3.4-1.1,6.7-2.9,9.8l-1.5,2.6L188.2,119.9z M137,120.5l-3.2-0.1c-2.1-0.1-4-0.9-5.4-2.4c-1.4-1.5-2.2-3.5-2.1-5.5l0.4-13.9
		c0.1-4.1,3.6-7.5,7.7-7.5l3.5,0.1L137,120.5z M63.7,124.1c-1-0.4-2.1-0.3-3,0.2c-1,0.5-1.7,1.3-2,2.3s-0.3,2.1,0.2,3l5.6,11.6H50.1
		l-10.3-21.3l0.5,0.2l-1.5-2.5c-1.8-3.1-2.8-6.4-2.9-9.8c-0.2-6.1,2.4-12,7.3-16.5c5-4.7,11.9-7.4,19.2-7.6
		c7.4-0.2,14.4,2.1,19.7,6.5l1,32.4l0,0c-4.1,3.8-9.4,6.3-15.4,7.2l-1.7-3.6C65.5,125.2,64.7,124.5,63.7,124.1z M101.3,98.6
		l0.4,13.9c0.1,2.1-0.7,4-2.1,5.5s-3.3,2.4-5.4,2.4l-3.2,0.1l-0.8-29.3l3.2-0.1h0.2C97.7,91.1,101.2,94.4,101.3,98.6z M211.1,149.2
		v55.9c0,22.9-18.6,41.5-41.5,41.5H58.4c-22.9,0-41.5-18.6-41.5-41.5v-55.9H211.1z" />
	<path class="st0" d="M165.4,102.2h-14.1c-2.2,0-4,1.8-4,4s1.8,4,4,4h14.1c2.2,0,4-1.8,4-4C169.4,103.9,167.6,102.2,165.4,102.2z"/>
	<path class="st0" d="M80.7,106.1c0-2.2-1.8-4-4-4H62.6c-2.2,0-4,1.8-4,4s1.8,4,4,4h14.1C78.9,110.1,80.7,108.3,80.7,106.1z"/>
	<path class="st0" d="M114,204.2c3.5,0,6.3-2.8,6.3-6.3s-2.8-6.3-6.3-6.3s-6.3,2.8-6.3,6.3S110.5,204.2,114,204.2z"/>
	<animate
	attributeName="opacity"
	values="0;1;1;0"
	dur="2s"
	repeatCount="indefinite" />
	<!-- <animate
	attributeName="y"
	values="0;100;100;0"
	dur="2s"
	repeatCount="indefinite" /> -->
</g>
<g id="loading_prize_02">


	<path class="st0" d="M528.9,93.8c9.1,0,16.5-7.4,16.5-16.5V30.5c0-9.1-7.4-16.5-16.5-16.5H324.3c-9.1,0-16.5,7.4-16.5,16.5v46.8
		c0,9.1,7.4,16.5,16.5,16.5h6.3v154.4h-7.2c-8.6,0-15.6,7-15.6,15.6v13.4c0,8.6,7,15.6,15.6,15.6h206.3c8.6,0,15.6-7,15.6-15.6
		v-13.4c0-8.6-7-15.6-15.6-15.6h-7.1V93.8H528.9z M324.3,86c-4.8,0-8.7-3.9-8.7-8.7V30.5c0-4.8,3.9-8.7,8.7-8.7H529
		c4.8,0,8.7,3.9,8.7,8.7v46.8c0,4.8-3.9,8.7-8.7,8.7h-6.4h-71.8h-48.3h-71.9H324.3z M437.3,120.2H416c-3.2,0-5.7-2.6-5.7-5.7V93.8
		h32.8v20.8C443,117.7,440.4,120.2,437.3,120.2z M423.2,128h6.8v4.8h-6.8V128z M529.8,256c4.3,0,7.9,3.5,7.9,7.9v13.4
		c0,4.3-3.5,7.9-7.9,7.9H323.4c-4.3,0-7.9-3.5-7.9-7.9v-13.4c0-4.3,3.5-7.9,7.9-7.9h7.2h192H529.8z M464.6,197.4H475
		c4.7,0,8.6,3.9,8.6,8.6c0,3-1.6,5.9-4.2,7.4l-17.6,10.3L464.6,197.4z M457.6,189.6L457.6,189.6l-5.4,48.7l0,0l-1.1,9.9h-49.2
		l-7.5-67.7h64.2L457.6,189.6z M514.8,248.2H459l1.6-14.8l22.6-13.3c5-2.9,8.1-8.3,8.1-14.1c0-9-7.3-16.4-16.4-16.4h-9.5l1.9-16.9
		h-81.5l8.3,75.5h-55.7V93.8h64v20.8c0,7.3,5.8,13.2,13,13.5v5.8c0,3.8,3.1,6.8,6.8,6.8h8.7c3.8,0,6.8-3.1,6.8-6.8v-5.8
		c7.2-0.3,13-6.2,13-13.5V93.8h64L514.8,248.2L514.8,248.2z"/>
	<path class="st0" d="M482.9,57.7v-7.6c0-9.1-7.4-16.5-16.5-16.5h-79.6c-9.1,0-16.5,7.4-16.5,16.5v7.6c0,9.1,7.4,16.5,16.5,16.5
		h79.6C475.5,74.2,482.9,66.8,482.9,57.7z M378.1,57.7v-7.6c0-4.8,3.9-8.7,8.7-8.7h79.6c4.8,0,8.7,3.9,8.7,8.7v7.6
		c0,4.8-3.9,8.7-8.7,8.7h-79.6C382,66.4,378.1,62.5,378.1,57.7z"/>
	<rect x="390.6" y="49.5" class="st0" width="39" height="7.8"/>
	<rect x="444.3" y="49.5" class="st0" width="15.5" height="7.8"/>
</g>
<g id="loading_prize_03">
	<path class="st0" d="M758.7,25.7c-3.9-3.9-9-6-14.5-6h-89.6c-5.5,0-10.6,2.1-14.5,6c-3.9,3.9-6,9-6,14.5v225.3
		c0,5.5,2.1,10.6,6,14.5c3.9,3.9,9,6,14.5,6h89.6c5.5,0,10.6-2.1,14.5-6c3.9-3.9,6-9,6-14.5V40.2C764.7,34.7,762.5,29.5,758.7,25.7z
		 M655.9,27.5h87c7.5,0,13.7,6.3,13.7,14v222.6c0,7.7-6.1,14-13.7,14h-87c-7.5,0-13.7-6.3-13.7-14V41.5
		C642.2,33.8,648.4,27.5,655.9,27.5z M655.9,278.9L655.9,278.9c-1.5,0-3-0.2-4.4-0.7C652.9,278.6,654.4,278.9,655.9,278.9z
		 M650.8,277.9c-0.4-0.2-0.8-0.4-1.2-0.6C649.9,277.5,650.3,277.6,650.8,277.9z M648.6,276.8c-0.1-0.1-0.2-0.1-0.4-0.2
		C648.4,276.6,648.5,276.8,648.6,276.8z M647.5,276.1c-0.2-0.2-0.5-0.4-0.7-0.5C647,275.6,647.3,275.9,647.5,276.1z M646.7,275.5
		c-0.2-0.1-0.3-0.3-0.5-0.4C646.4,275.1,646.6,275.2,646.7,275.5z M641.5,41.5c0-2.4,0.6-4.7,1.6-6.7
		C642.1,36.8,641.5,39.1,641.5,41.5v222.6c0,2.5,0.6,4.9,1.7,7c-1.1-2.1-1.7-4.4-1.7-7V41.5z M645.5,31.4L645.5,31.4L645.5,31.4z
		 M645.1,31.9C645,31.9,645,31.9,645.1,31.9C645,31.9,645,31.9,645.1,31.9z M643.7,33.7c-0.1,0.1-0.2,0.3-0.2,0.4
		C643.6,34,643.6,33.8,643.7,33.7z M643.4,34.3c-0.1,0.2-0.2,0.4-0.3,0.5C643.2,34.6,643.3,34.4,643.4,34.3z M645.7,274.6
		c-0.7-0.7-1.3-1.5-1.9-2.3C644.4,273.1,645,273.9,645.7,274.6z M643.7,272c-0.2-0.2-0.3-0.5-0.4-0.7
		C643.4,271.5,643.6,271.6,643.7,272z M634.8,40.2c0-3.5,0.9-6.9,2.6-9.8C635.8,33.3,634.8,36.6,634.8,40.2v225.3
		c0,4.4,1.4,8.4,3.8,11.7c-2.4-3.3-3.8-7.3-3.8-11.7V40.2z M638.3,28.9c-0.1,0.1-0.2,0.3-0.3,0.4C638.1,29.2,638.2,29.1,638.3,28.9z
		 M639,277.6c0.3,0.4,0.6,0.8,1,1.2C639.6,278.5,639.3,278.1,639,277.6z M640.6,279.5L640.6,279.5L640.6,279.5z M758.2,279.5
		L758.2,279.5L758.2,279.5z M764,265.5c0,4.9-1.8,9.5-4.8,12.9c-0.2,0.2-0.3,0.4-0.5,0.5c0.2-0.2,0.3-0.4,0.5-0.5
		C762.2,275,764,270.5,764,265.5V40.1c0-3.5-0.9-6.9-2.6-9.8c1.6,2.9,2.6,6.2,2.6,9.8V265.5z M760,28.2c0.1,0.1,0.1,0.2,0.2,0.3
		C760.1,28.4,760,28.3,760,28.2z M760.5,28.9c0.1,0.1,0.2,0.3,0.3,0.4C760.7,29.2,760.6,29.1,760.5,28.9z M760.9,29.6
		c0.1,0.2,0.3,0.4,0.4,0.6C761.2,30,761.1,29.8,760.9,29.6z"/>
	<path class="st0" d="M686,46.7h26.8c3.2,0,5.8-2.6,5.8-5.8s-2.6-5.8-5.8-5.8H686c-3.2,0-5.8,2.6-5.8,5.8
		C680.2,44.1,682.8,46.7,686,46.7z"/>
</g>
<g id="loading_prize_04">
	<path class="st0" d="M1057.4,62.3c-2.7-6.1-8.7-10-15.3-10l0,0h-34.6c-1.9-4.7-3.9-9.8-6.2-15.2c-0.4-1-0.7-1.8-0.8-2
		c-0.4-1.2-1.5-2.1-2.8-2.3c-0.1,0-3.2-0.4-8.6-0.9c-0.2-0.3-0.4-0.6-0.6-0.8c-9.5-9.4-22.2-14.7-35.7-14.7
		c-13.6,0-26.3,5.3-35.9,15c-0.2,0.2-0.3,0.3-0.4,0.5c-5.9,0.5-9.5,1-9.6,1c-1.3,0.2-2.4,1.1-2.8,2.3c-0.1,0.2-0.4,1-0.8,2
		c-1.8,4.3-3.4,8.3-5,12.2H865c-1.9,0-3.5,1.6-3.5,3.5c0,0.8,0.1,19.7,12.8,68.6c-6.1,27.8-9.1,59-10.5,81.8
		c-1.9,28.7-1.8,50.6-1.8,50.8c0,1.4,0.9,2.7,2.2,3.2c0.1,0.1,1.9,0.7,5.3,1.7v17.8c0,1.6,1,2.9,2.6,3.4c12.4,3.5,39.3,9.2,80.3,9.2
		l0,0l0,0l0,0l0,0c40.9,0,67.9-5.8,80.3-9.2c1.5-0.4,2.6-1.8,2.6-3.4v-17.9c3.4-1,5.1-1.7,5.3-1.7c1.3-0.5,2.2-1.8,2.2-3.2
		c0-0.2,0.1-22-1.8-50.8c-0.1-1-0.1-2-0.2-3c14.5-2.7,25-10.5,31.2-23.3c4.9-10.1,7.2-23.2,7.2-41.2
		C1079.1,114.3,1065.5,80.6,1057.4,62.3z M952.8,23.4c9,0,17.5,2.7,24.7,7.7c-7-0.4-15.4-0.8-24.8-0.8c-8.8,0-17.3,0.3-24.5,0.8
		C935.4,26.1,943.9,23.4,952.8,23.4z M895.6,56.3c-10,25.2-15.1,41.1-17.7,50.6c-6.8-28.2-8.6-44-9.2-50.5L895.6,56.3L895.6,56.3z
		 M1028.2,274.1c-13,3.4-38.4,8.3-75.8,8.3c-37.5,0-62.8-4.9-75.8-8.3v-13.2c2.9,0.7,6.3,1.5,10.2,2.3c13.4,2.6,35.7,5.8,65.6,5.8
		c29.9,0,52.2-3.2,65.6-5.8c3.9-0.8,7.3-1.6,10.2-2.3V274.1L1028.2,274.1z M1016.3,256.3c-13.1,2.6-34.8,5.6-64,5.6
		c-29.2,0-50.9-3.1-64-5.6c-9.7-1.9-16.2-3.8-19.3-4.8c0-6.4,0.3-24.9,1.7-47.8c1.4-22.4,4.4-53,10.3-80.2c0.4-0.6,0.5-1.3,0.5-2.1
		c0.9-4,1.9-7.9,2.9-11.7c3-11.2,9.9-32.5,25.4-69.8c0-0.1,0.1-0.2,0.1-0.3c5.8-0.7,23.7-2.5,42.9-2.4c20.6,0.1,36.6,1.7,42,2.3
		c0,0.1,0.1,0.2,0.1,0.3c15.5,37.4,22.4,58.6,25.4,69.9c8.2,30.1,11.9,67.7,13.6,93.9c1.5,22.9,1.7,41.4,1.7,47.9
		C1032.5,252.5,1026,254.4,1016.3,256.3z M1027.1,107.8L1027.1,107.8c-1.5-5.7-4.1-13.9-8.1-25.4h20.6l0,0c2.2,0,4.1,1.3,5,3.2
		c4.2,9.6,14.1,33.3,14.1,47.1c0,23.3-6.2,34.8-20.6,37.6C1035.8,149.8,1032.3,127.3,1027.1,107.8z M1065.6,173.8
		c-5.1,10.6-13.5,17-25.4,19.4c-0.4-5-0.9-10.4-1.4-15.9c10.2-1.9,17.5-7.4,21.9-16.4c3.4-7,4.9-16,4.9-28.3
		c0-14.6-9.2-37.5-14.7-49.9c-2-4.5-6.5-7.4-11.4-7.4l0,0h-23.1c-1.8-4.8-3.8-10.2-6.1-16.1h31.8l0,0c3.9,0,7.4,2.3,9,5.8
		c6.3,14.3,21,49.7,21,70.5C1072.1,152.6,1070,164.7,1065.6,173.8z"/>
	<path class="st0" d="M960,218.7h-15.4c-6.2,0-11.3,5.1-11.3,11.3s5.1,11.3,11.3,11.3H960c6.2,0,11.3-5.1,11.3-11.3
		C971.3,223.8,966.3,218.7,960,218.7z M960,234.3h-15.4c-2.4,0-4.3-1.9-4.3-4.3s1.9-4.3,4.3-4.3H960c2.4,0,4.3,1.9,4.3,4.3
		S962.4,234.3,960,234.3z"/>
	<path class="st0" d="M952.3,76.3c-11.3,0-20.5,9.2-20.5,20.5v80.3c0,11.3,9.2,20.5,20.5,20.5c11.3,0,20.5-9.2,20.5-20.5V96.8
		C972.8,85.5,963.6,76.3,952.3,76.3z M952.3,190.5c-7.4,0-13.5-6-13.5-13.5V96.8c0-7.4,6-13.5,13.5-13.5c7.4,0,13.5,6,13.5,13.5v5
		h-13.1c-1.9,0-3.5,1.6-3.5,3.5s1.6,3.5,3.5,3.5h13.1v8.8h-13.1c-1.9,0-3.5,1.6-3.5,3.5s1.6,3.5,3.5,3.5h13.1v8.8h-13.1
		c-1.9,0-3.5,1.6-3.5,3.5s1.6,3.5,3.5,3.5h13.1v8.8h-13.1c-1.9,0-3.5,1.6-3.5,3.5s1.6,3.5,3.5,3.5h13.1v8.8h-13.1
		c-1.9,0-3.5,1.6-3.5,3.5s1.6,3.5,3.5,3.5h13.1v5C965.8,184.5,959.8,190.5,952.3,190.5z"/>
</g>
</svg>
