<?xml version="1.0" encoding="utf-8"?>
<!-- Generator: Adobe Illustrator 25.2.3, SVG Export Plug-In . SVG Version: 6.00 Build 0)  -->
<svg version="1.1" id="Layer_1" xmlns="http://www.w3.org/2000/svg" xmlns:xlink="http://www.w3.org/1999/xlink" x="0px" y="0px"
	 viewBox="0 0 385 7" style="enable-background:new 0 0 385 7;" xml:space="preserve">
<style type="text/css">
	.st0{fill:#490E00;}
</style>
<polygon class="st0" points="385,7 0,7 0,0 4.7,4.7 9.4,0 14.1,4.7 18.8,0 23.5,4.7 28.2,0 32.9,4.7 37.6,0 42.3,4.7 47,0 51.7,4.7 
	56.3,0 61,4.7 65.7,0 70.4,4.7 75.1,0 79.8,4.7 84.5,0 89.2,4.7 93.9,0 98.6,4.7 103.3,0 108,4.7 112.7,0 117.4,4.7 122.1,0 
	126.8,4.7 131.5,0 136.2,4.7 140.9,0 145.6,4.7 150.3,0 155,4.7 159.7,0 164.3,4.7 169,0 173.7,4.7 178.4,0 183.1,4.7 187.8,0 
	192.5,4.7 197.2,0 201.9,4.7 206.6,0 211.3,4.7 216,0 220.7,4.7 225.4,0 230.1,4.7 234.8,0 239.5,4.7 244.2,0 248.9,4.7 253.6,0 
	258.3,4.7 263,0 267.7,4.7 272.3,0 277,4.7 281.7,0 286.4,4.7 291.1,0 295.8,4.7 300.5,0 305.2,4.7 309.9,0 314.6,4.7 319.3,0 
	324,4.7 328.7,0 333.4,4.7 338.1,0 342.8,4.7 347.5,0 352.2,4.7 356.9,0 361.6,4.7 366.3,0 371,4.7 375.7,0 380.3,4.7 385,0 "/>
</svg>
