<?xml version="1.0" encoding="utf-8"?>
<!-- Generator: Adobe Illustrator 25.2.3, SVG Export Plug-In . SVG Version: 6.00 Build 0)  -->
<svg version="1.1" id="Layer_1" xmlns="http://www.w3.org/2000/svg" xmlns:xlink="http://www.w3.org/1999/xlink" x="0px" y="0px"
	 viewBox="0 0 85 97" style="enable-background:new 0 0 85 97;" xml:space="preserve">
<style type="text/css">
	.st0{fill:#4C0901;}
	.st1{fill:none;stroke:#4C0901;stroke-width:3;stroke-miterlimit:10;}
</style>
<path class="st0" d="M64.7,18.3c0.7-1.1,1.5-2.2,2.2-3.4c0.5,0.3,1,0.7,1.6,1c2.1,1.4,4.1-2,2-3.4c-2.1-1.4-4.1-2.7-6.2-4.1
	c-2.1-1.4-4.1,2-2,3.4c0.5,0.3,0.9,0.6,1.4,0.9c-0.8,1.2-1.6,2.4-2.4,3.6c-1.4-0.7-2.8-1.3-4.3-1.9c-4-1.5-8.3-2.3-12.5-2.5
	c0-0.7,0-1.5,0-2.2c1.2,0,2.3,0,3.5,0c0.1,0,0.2,0,0.3,0c0.3,0,0.5-0.1,0.7-0.1c1.1-0.3,2-0.9,2.4-2.1c0.3-0.8,0.2-1.7,0.2-2.5
	c0-2.2-0.2-4.5-2.8-5c-1-0.2-2.1-0.1-3.1-0.1c-1.8,0-3.7,0-5.5,0c-1.1,0-2.3-0.1-3.4,0c-2.3,0.1-3.5,1.9-3.5,4c0,2-0.3,4.3,1.8,5.4
	c1,0.6,2.3,0.4,3.5,0.4c0.6,0,1.3,0,1.9,0c0,0.7,0,1.5,0,2.2c-5.8,0.3-11.5,1.8-16.8,4.3c-0.8-1.2-1.6-2.4-2.4-3.6
	c0.5-0.3,0.9-0.6,1.4-0.9c2.1-1.4,0.1-4.8-2-3.4c-2.1,1.4-4.1,2.7-6.2,4.1c-2.1,1.4-0.1,4.8,2,3.4c0.5-0.3,1-0.7,1.6-1
	c0.7,1.1,1.5,2.2,2.2,3.4c-3.9,2.4-7.5,5.4-10.5,9.1c-11.4,13.8-13,33.9-3.6,49.2c9.3,15.2,27.4,23,44.8,19.6
	C68,92.8,81.8,78.5,84.5,61.3c0.3-2.2,0.5-4.5,0.5-6.8C84.9,39.7,77,26,64.7,18.3z M38.4,5.9c-0.3,0-0.7,0-1,0c0-0.5,0-1.4,0-1.9
	c0.3,0,0.6,0,0.9,0c2.6,0,5.3,0,7.9,0c0.5,0,1,0.1,1.5,0c0,0.3,0,0.7,0,1c0,0.3,0,0.7,0,1c-1.8,0-3.5,0-5.3,0
	C41,5.9,39.7,5.9,38.4,5.9z M55.9,90.7C40.5,96.3,23.1,91.6,12.6,79C2.3,66.6,1.1,48.4,9.4,34.6C17.7,20.8,34.2,13.5,50,16.7
	c15.8,3.2,28.1,16.1,30.6,31.9c0.3,2,0.4,3.9,0.4,5.9C81,70.4,70.9,85.2,55.9,90.7z"/>
<path class="st1" d="M54.6,87.4c-13.9,5.1-29.8,0.8-39.2-10.6C6,65.5,4.9,48.9,12.5,36.4C20,23.9,35,17.3,49.3,20.2
	c14.3,2.9,25.5,14.6,27.8,29c0.3,1.8,0.4,3.6,0.4,5.4C77.4,69,68.3,82.4,54.6,87.4z"/>
</svg>
