<?xml version="1.0" encoding="utf-8"?>
<!-- Generator: Adobe Illustrator 25.2.3, SVG Export Plug-In . SVG Version: 6.00 Build 0)  -->
<svg version="1.1" id="Layer_1" xmlns="http://www.w3.org/2000/svg" xmlns:xlink="http://www.w3.org/1999/xlink" x="0px" y="0px"
	 viewBox="0 0 20 20" style="enable-background:new 0 0 20 20;" xml:space="preserve">
<style type="text/css">
	.st0{fill:#FFFFFF;}
</style>
<g>
	<path class="st0" d="M0,10.6c0-0.3,0.1-0.6,0.4-0.9L10,0.1l9.6,9.6c0.5,0.5,0.5,1.3,0,1.8c-0.5,0.5-1.3,0.5-1.8,0L10,3.6l-7.9,7.9
		c-0.5,0.5-1.3,0.5-1.8,0C0.1,11.3,0,11,0,10.6z"/>
	<path class="st0" d="M0,18.6c0-0.3,0.1-0.6,0.4-0.9L10,8.1l9.6,9.6c0.5,0.5,0.5,1.3,0,1.8c-0.5,0.5-1.3,0.5-1.8,0L10,11.6l-7.9,7.9
		c-0.5,0.5-1.3,0.5-1.8,0C0.1,19.3,0,19,0,18.6z"/>
</g>
</svg>
