<?xml version="1.0" encoding="utf-8"?>
<!-- Generator: Adobe Illustrator 25.2.3, SVG Export Plug-In . SVG Version: 6.00 Build 0)  -->
<svg version="1.1" id="Layer_1" xmlns="http://www.w3.org/2000/svg" xmlns:xlink="http://www.w3.org/1999/xlink" x="0px" y="0px"
	 viewBox="0 0 22 44" style="enable-background:new 0 0 22 44;" xml:space="preserve">
<style type="text/css">
	.st0{fill:#48130E;}
	.st1{fill:#ED1C24;}
</style>
<path class="st0" d="M14.5,11l6.7-6.7C21.7,3.8,22,3.2,22,2.5c0-0.7-0.2-1.3-0.7-1.8C20.8,0.2,20.2,0,19.5,0c-0.7,0-1.3,0.3-1.8,0.8
	L11,7.5L4.3,0.8C3.8,0.3,3.2,0,2.5,0C1.8,0,1.2,0.2,0.7,0.7C0.2,1.2,0,1.8,0,2.5c0,0.7,0.3,1.3,0.8,1.8L7.5,11l-6.7,6.8
	C0.3,18.2,0,18.8,0,19.6c0,0.7,0.2,1.3,0.7,1.8C1.2,21.8,1.8,22,2.5,22c0.7,0,1.3-0.3,1.8-0.8l6.7-6.8l6.7,6.7
	c0.5,0.5,1.1,0.7,1.8,0.8c0.7,0,1.3-0.2,1.8-0.7c0.5-0.5,0.7-1.1,0.7-1.8c0-0.7-0.3-1.3-0.8-1.8L14.5,11z M3.6,1.3
	C3.5,1.4,3.3,1.5,3.1,1.5l-0.3,0l-0.3,0c-0.4,0-0.7,0-0.7,0C1.7,1.3,1.7,1.2,1.6,1.1c0-0.1,0-0.3,0.1-0.4c0.1-0.1,0.4-0.2,0.9-0.2
	c0.4,0,0.7,0,0.8,0.2C3.7,0.9,3.7,1.1,3.6,1.3z M3.4,21.3c-0.2,0.1-0.4,0.2-0.8,0.2c-0.4,0-0.7,0-0.9-0.2c-0.1-0.1-0.2-0.3-0.1-0.4
	c0-0.1,0.1-0.2,0.2-0.3c0.1,0,0.3,0,0.7,0l0.3,0l0.3,0c0.2,0,0.4,0.1,0.5,0.2C3.7,21,3.7,21.2,3.4,21.3z"/>
<path class="st1" d="M14.5,33l6.7-6.7c0.5-0.5,0.7-1.1,0.8-1.8c0-0.7-0.2-1.3-0.7-1.8c-0.5-0.5-1.1-0.7-1.8-0.7
	c-0.7,0-1.3,0.3-1.8,0.8L11,29.5l-6.7-6.8C3.8,22.3,3.2,22,2.5,22c-0.7,0-1.3,0.2-1.8,0.7C0.2,23.2,0,23.8,0,24.5
	c0,0.7,0.3,1.3,0.8,1.8L7.5,33l-6.7,6.8C0.3,40.3,0,40.9,0,41.6c0,0.7,0.2,1.3,0.7,1.8C1.2,43.8,1.8,44,2.5,44
	c0.7,0,1.3-0.3,1.8-0.8l6.7-6.8l6.7,6.7c0.5,0.5,1.1,0.7,1.8,0.8c0.7,0,1.3-0.2,1.8-0.7c0.5-0.5,0.7-1.1,0.7-1.8
	c0-0.7-0.3-1.3-0.8-1.8L14.5,33z M3.6,23.3c-0.1,0.1-0.3,0.2-0.5,0.2l-0.3,0l-0.3,0c-0.4,0-0.7,0-0.7,0c-0.1-0.1-0.2-0.2-0.2-0.3
	c0-0.1,0-0.3,0.1-0.4c0.1-0.1,0.4-0.2,0.9-0.2c0.4,0,0.7,0,0.8,0.2C3.7,22.9,3.7,23.1,3.6,23.3z M3.4,43.3c-0.2,0.1-0.4,0.2-0.8,0.2
	c-0.4,0-0.7,0-0.9-0.2c-0.1-0.1-0.2-0.3-0.1-0.4c0-0.1,0.1-0.2,0.2-0.3c0.1,0,0.3,0,0.7,0l0.3,0l0.3,0c0.2,0,0.4,0.1,0.5,0.2
	C3.7,43,3.7,43.2,3.4,43.3z"/>
</svg>
