<?xml version="1.0" encoding="utf-8"?>
<!-- Generator: Adobe Illustrator 19.2.1, SVG Export Plug-In . SVG Version: 6.00 Build 0)  -->
<svg version="1.1" id="Layer_1" xmlns="http://www.w3.org/2000/svg" xmlns:xlink="http://www.w3.org/1999/xlink" x="0px" y="0px"
	 width="40px" height="40px" viewBox="0 0 40 40" style="enable-background:new 0 0 40 40;" xml:space="preserve">
<style type="text/css">
	.st0{fill:#FFFFFF;}
</style>
<path class="st0" d="M37.2,35.7l-9.3-12.4c1.6-1.9,2.7-4.3,3.1-7c1.1-7.8-4.3-15-12.1-16.1C11.1-1,3.9,4.5,2.8,12.2
	c-1.1,7.8,4.3,15,12.1,16.1c2.7,0.4,5.4,0,7.7-1.1l9.3,12.4c0.5,0.7,2.1,0.4,3.5-0.7l0.1-0.1C36.9,37.8,37.7,36.3,37.2,35.7z
	 M15.4,24.9c-5.9-0.8-10-6.3-9.2-12.2c0.8-5.9,6.3-10,12.2-9.2c5.9,0.8,10,6.3,9.2,12.2C26.8,21.6,21.3,25.7,15.4,24.9z"/>
</svg>
